<?xml version="1.0" encoding="UTF-8"?>
<svg xmlns="http://www.w3.org/2000/svg" width="8192" height="8192" viewBox="0 0 2048 2048" role="img" aria-labelledby="title desc">
  <title id="title">Astral Sentinel — surface source</title>
  <desc id="desc">Original PaoPao Fusion stylized crystal production master PF-asset-216; authored for the Phaser client.</desc>
  <metadata>{&quot;schemaVersion&quot;:1,&quot;id&quot;:&quot;PF-asset-216&quot;,&quot;release&quot;:3,&quot;allocation&quot;:&quot;characters-orbs-bosses-rigs&quot;,&quot;subject&quot;:&quot;Astral Sentinel&quot;,&quot;facet&quot;:&quot;surface source&quot;,&quot;original&quot;:true,&quot;artboard&quot;:[8192,8192],&quot;runtimePolicy&quot;:&quot;derive optimized Phaser variants without counting copies as masters&quot;}</metadata>
  <defs>
    <linearGradient id="back" x1="0" y1="0" x2="1" y2="1"><stop stop-color="#050713"/><stop offset=".55" stop-color="#1f0f2a"/><stop offset="1" stop-color="#8c2177"/></linearGradient>
    <radialGradient id="hero" cx="32%" cy="24%"><stop stop-color="#9df0ab"/><stop offset=".38" stop-color="#e94e5d"/><stop offset="1" stop-color="#8c2177"/></radialGradient>
    <linearGradient id="facet-0"><stop stop-color="#e94e5d"/><stop offset="1" stop-color="#8c2177"/></linearGradient>
    <linearGradient id="facet-1"><stop stop-color="#e3bd68"/><stop offset="1" stop-color="#1f0f2a"/></linearGradient>
    <linearGradient id="facet-2"><stop stop-color="#9df0ab"/><stop offset="1" stop-color="#e94e5d"/></linearGradient>
  </defs>
  <rect width="2048" height="2048" fill="url(#back)"/>
  <path d="M0 148 L440 0 M1608 0 L2048 148 M0 1900 L440 2048 M1608 2048 L2048 1900" stroke="#e3bd68" stroke-opacity=".42" stroke-width="8" fill="none"/>
  <text x="74" y="94" fill="#e3bd68" font-family="Georgia,serif" font-size="34" font-weight="700" letter-spacing="5">PAOPAO FUSION • MASTER PF-asset-216</text>
  <text x="74" y="164" fill="#9df0ab" font-family="Arial,sans-serif" font-size="52" font-weight="800">Astral Sentinel</text>
  <text x="74" y="216" fill="#e94e5d" font-family="Arial,sans-serif" font-size="28" letter-spacing="2">SURFACE SOURCE</text>
  <g><defs><clipPath id="panel-clip-0"><rect x="74" y="260" width="929" height="1580" rx="38"/></clipPath></defs><rect x="74" y="260" width="929" height="1580" rx="38" fill="#1f0f2a"/><g clip-path="url(#panel-clip-0)"><polygon points="335.3,543.9 148.0,653.0 10.9,453.5 113.4,221.0 313.9,276.8" fill="url(#facet-0)" opacity="0.13"/><polygon points="50.1,756.7 52.5,533.3 318.9,423.1 582.9,536.3 580.5,759.7 314.1,869.9" fill="url(#facet-0)" opacity="0.11"/><polygon points="749.3,1935.5 672.7,1824.4 706.9,1691.6 826.2,1637.1 940.7,1702.0 964.3,1837.3 879.1,1941.3" fill="url(#facet-0)" opacity="0.23"/><polygon points="409.0,612.6 516.2,277.0 791.1,307.9 853.8,662.6 617.7,850.9" fill="url(#facet-0)" opacity="0.24"/><polygon points="809.7,1510.7 661.6,1490.3 602.7,1330.9 691.9,1191.8 840.0,1212.2 898.9,1371.6" fill="url(#facet-0)" opacity="0.09"/><polygon points="689.7,977.7 474.4,1069.7 235.9,1011.0 153.7,845.9 289.7,698.6 541.5,680.1 719.5,804.3" fill="url(#facet-0)" opacity="0.17"/><polygon points="251.7,728.3 245.7,496.9 437.1,418.9 561.3,602.2 446.7,793.4" fill="url(#facet-0)" opacity="0.31"/><polygon points="521.2,1033.2 388.4,787.5 513.0,536.5 770.5,531.2 903.3,776.9 778.7,1027.9" fill="url(#facet-0)" opacity="0.32"/><polygon points="727.8,456.3 587.9,365.1 601.5,230.8 758.3,154.6 940.3,193.9 1010.4,319.0 915.8,435.8" fill="url(#facet-0)" opacity="0.18"/><path d="M 417.73 1397.6 Q 352.7 1018.4 538.5 702.4 Q 724.3 1018.4 659.27 1397.6 Z" fill="url(#hero)" stroke="#e3bd68" stroke-width="9"/><circle cx="538.5" cy="765.6" r="74.32000000000001" fill="#9df0ab" stroke="#e3bd68" stroke-width="7"/><polygon points="538.5,845.2 724.0,986.7 653.2,1215.7 423.8,1215.7 353.0,986.7" fill="none" stroke="#9df0ab" stroke-opacity=".46" stroke-width="5"/></g><rect x="74" y="260" width="929" height="1580" rx="38" fill="none" stroke="#e94e5d" stroke-opacity=".48" stroke-width="6"/></g>
  <g><defs><clipPath id="panel-clip-1"><rect x="1045" y="260" width="929" height="1580" rx="38"/></clipPath></defs><rect x="1045" y="260" width="929" height="1580" rx="38" fill="#1f0f2a"/><g clip-path="url(#panel-clip-1)"><polygon points="1812.1,1663.2 1602.4,1530.2 1716.1,1347.7 1996.1,1368.0 2055.4,1562.9" fill="url(#facet-1)" opacity="0.31"/><polygon points="1289.5,1119.0 1195.5,956.5 1340.6,815.6 1579.8,837.2 1673.8,999.7 1528.7,1140.6" fill="url(#facet-1)" opacity="0.16"/><polygon points="875.3,1368.9 858.9,1088.4 1055.5,900.0 1317.0,945.5 1446.5,1190.6 1346.5,1450.8 1092.3,1530.2" fill="url(#facet-1)" opacity="0.27"/><polygon points="1950.5,1556.0 1683.2,1473.3 1695.2,1236.4 1969.9,1172.7 2127.8,1370.2" fill="url(#facet-1)" opacity="0.09"/><polygon points="1543.0,443.9 1599.3,254.3 1776.4,213.3 1897.1,361.9 1840.7,551.5 1663.7,592.5" fill="url(#facet-1)" opacity="0.25"/><polygon points="1557.2,1960.5 1408.6,2008.7 1286.7,1888.9 1283.3,1691.2 1401.1,1564.6 1551.2,1604.3 1620.7,1780.6" fill="url(#facet-1)" opacity="0.18"/><polygon points="1918.1,600.4 1606.7,586.1 1524.8,300.6 1785.7,138.5 2028.8,323.8" fill="url(#facet-1)" opacity="0.14"/><polygon points="1345.5,1593.0 1412.5,1492.8 1547.6,1492.3 1615.7,1591.9 1548.7,1692.0 1413.5,1692.6" fill="url(#facet-1)" opacity="0.24"/><polygon points="1894.8,1919.1 1620.7,1873.5 1488.6,1647.8 1597.8,1411.8 1866.3,1343.4 2091.7,1494.0 2104.4,1750.2" fill="url(#facet-1)" opacity="0.14"/><path d="M 1388.73 1397.6 Q 1323.7 1018.4 1509.5 702.4 Q 1695.3 1018.4 1630.27 1397.6 Z" fill="url(#hero)" stroke="#e3bd68" stroke-width="9"/><circle cx="1509.5" cy="765.6" r="74.32000000000001" fill="#9df0ab" stroke="#e3bd68" stroke-width="7"/><polygon points="1509.5,845.2 1678.5,947.6 1678.5,1152.4 1509.5,1254.8 1340.5,1152.4 1340.5,947.6" fill="none" stroke="#9df0ab" stroke-opacity=".46" stroke-width="5"/></g><rect x="1045" y="260" width="929" height="1580" rx="38" fill="none" stroke="#e94e5d" stroke-opacity=".48" stroke-width="6"/></g>
  <text x="74" y="1991" fill="#9df0ab" opacity=".74" font-family="Arial,sans-serif" font-size="22">ORIGINAL STYLIZED CRYSTAL ART • 8192 × 8192 SOURCE • RELEASE 3</text>
</svg>
