<?xml version="1.0" encoding="UTF-8"?>
<svg xmlns="http://www.w3.org/2000/svg" width="8192" height="8192" viewBox="0 0 2048 2048" role="img" aria-labelledby="title desc">
  <title id="title">Heartwood Guardian — design turnaround</title>
  <desc id="desc">Original PaoPao Fusion stylized crystal production master PF-asset-111; authored for the Phaser client.</desc>
  <metadata>{&quot;schemaVersion&quot;:1,&quot;id&quot;:&quot;PF-asset-111&quot;,&quot;release&quot;:2,&quot;allocation&quot;:&quot;characters-orbs-bosses-rigs&quot;,&quot;subject&quot;:&quot;Heartwood Guardian&quot;,&quot;facet&quot;:&quot;design turnaround&quot;,&quot;original&quot;:true,&quot;artboard&quot;:[8192,8192],&quot;runtimePolicy&quot;:&quot;derive optimized Phaser variants without counting copies as masters&quot;}</metadata>
  <defs>
    <linearGradient id="back" x1="0" y1="0" x2="1" y2="1"><stop stop-color="#050713"/><stop offset=".55" stop-color="#0f152a"/><stop offset="1" stop-color="#47218c"/></linearGradient>
    <radialGradient id="hero" cx="32%" cy="24%"><stop stop-color="#d6f09d"/><stop offset=".38" stop-color="#e94ee1"/><stop offset="1" stop-color="#47218c"/></radialGradient>
    <linearGradient id="facet-0"><stop stop-color="#e94ee1"/><stop offset="1" stop-color="#47218c"/></linearGradient>
    <linearGradient id="facet-1"><stop stop-color="#e3bd68"/><stop offset="1" stop-color="#0f152a"/></linearGradient>
    <linearGradient id="facet-2"><stop stop-color="#d6f09d"/><stop offset="1" stop-color="#e94ee1"/></linearGradient>
  </defs>
  <rect width="2048" height="2048" fill="url(#back)"/>
  <path d="M0 148 L440 0 M1608 0 L2048 148 M0 1900 L440 2048 M1608 2048 L2048 1900" stroke="#e3bd68" stroke-opacity=".42" stroke-width="8" fill="none"/>
  <text x="74" y="94" fill="#e3bd68" font-family="Georgia,serif" font-size="34" font-weight="700" letter-spacing="5">PAOPAO FUSION • MASTER PF-asset-111</text>
  <text x="74" y="164" fill="#d6f09d" font-family="Arial,sans-serif" font-size="52" font-weight="800">Heartwood Guardian</text>
  <text x="74" y="216" fill="#e94ee1" font-family="Arial,sans-serif" font-size="28" letter-spacing="2">DESIGN TURNAROUND</text>
  <g><defs><clipPath id="panel-clip-0"><rect x="74" y="260" width="929" height="769" rx="38"/></clipPath></defs><rect x="74" y="260" width="929" height="769" rx="38" fill="#0f152a"/><g clip-path="url(#panel-clip-0)"><polygon points="419.6,726.3 189.6,857.4 22.0,615.2 148.5,334.4 394.3,403.1" fill="url(#facet-0)" opacity="0.22"/><polygon points="407.2,1081.1 434.0,729.9 675.2,585.4 889.5,792.1 862.6,1143.3 621.4,1287.8" fill="url(#facet-0)" opacity="0.29"/><polygon points="1078.0,934.8 975.6,1007.1 830.9,996.3 752.8,910.4 800.2,814.1 937.3,780.0 1061.0,833.7" fill="url(#facet-0)" opacity="0.12"/><polygon points="956.1,701.4 850.7,634.7 881.9,514.6 1006.7,507.0 1052.6,622.4" fill="url(#facet-0)" opacity="0.16"/><polygon points="371.1,602.4 462.5,423.0 711.5,393.7 869.2,543.9 777.9,723.3 528.8,752.5" fill="url(#facet-0)" opacity="0.17"/><polygon points="533.1,805.4 563.6,698.9 657.7,659.0 744.6,715.6 758.8,826.2 689.6,907.5 589.2,898.2" fill="url(#facet-0)" opacity="0.16"/><polygon points="265.1,566.5 166.8,492.8 205.8,375.7 328.1,377.0 364.7,494.9" fill="url(#facet-0)" opacity="0.23"/><polygon points="99.1,559.5 78.2,381.6 205.0,272.3 352.5,341.0 373.4,518.9 246.7,628.2" fill="url(#facet-0)" opacity="0.17"/><polygon points="761.1,804.4 723.0,640.3 791.3,496.5 914.5,481.3 999.8,606.1 983.1,777.0 876.8,865.3" fill="url(#facet-0)" opacity="0.28"/><path d="M 417.73 813.6800000000001 Q 352.7 629.12 538.5 475.32 Q 724.3 629.12 659.27 813.6800000000001 Z" fill="url(#hero)" stroke="#e3bd68" stroke-width="9"/><circle cx="538.5" cy="506.08000000000004" r="61.52" fill="#d6f09d" stroke="#e3bd68" stroke-width="7"/><polygon points="538.5,474.9 664.8,538.8 695.9,682.2 608.6,797.3 468.4,797.3 381.1,682.2 412.2,538.8" fill="none" stroke="#d6f09d" stroke-opacity=".46" stroke-width="5"/></g><rect x="74" y="260" width="929" height="769" rx="38" fill="none" stroke="#e94ee1" stroke-opacity=".48" stroke-width="6"/></g>
  <g><defs><clipPath id="panel-clip-1"><rect x="1045" y="260" width="929" height="769" rx="38"/></clipPath></defs><rect x="1045" y="260" width="929" height="769" rx="38" fill="#0f152a"/><g clip-path="url(#panel-clip-1)"><polygon points="1454.6,407.1 1335.1,476.5 1237.6,373.9 1297.0,241.3 1431.1,261.8" fill="url(#facet-1)" opacity="0.31"/><polygon points="1735.5,919.0 1688.5,791.7 1803.3,695.6 1965.0,726.8 2012.0,854.1 1897.2,950.2" fill="url(#facet-1)" opacity="0.20"/><polygon points="1681.6,1071.1 1602.4,823.2 1723.6,598.3 1953.9,565.7 2119.8,750.0 2096.5,1012.4 1901.5,1155.3" fill="url(#facet-1)" opacity="0.30"/><polygon points="2005.5,679.2 1693.5,746.7 1550.2,360.6 1773.7,54.5 2055.1,251.3" fill="url(#facet-1)" opacity="0.11"/><polygon points="1528.5,984.8 1416.1,913.2 1447.5,808.4 1591.2,775.3 1703.6,846.9 1672.3,951.7" fill="url(#facet-1)" opacity="0.16"/><polygon points="1731.1,599.1 1580.3,687.8 1424.2,611.4 1380.3,427.3 1481.7,274.2 1652.1,267.4 1763.0,412.0" fill="url(#facet-1)" opacity="0.23"/><polygon points="1435.1,980.1 1348.6,875.7 1406.4,746.8 1528.5,771.5 1546.3,915.7" fill="url(#facet-1)" opacity="0.13"/><polygon points="1522.9,545.2 1524.3,423.5 1657.1,363.6 1788.5,425.4 1787.1,547.1 1654.4,607.0" fill="url(#facet-1)" opacity="0.21"/><polygon points="1231.0,854.1 1056.2,836.6 967.3,732.4 1031.3,619.9 1199.9,583.9 1346.2,651.5 1360.1,771.8" fill="url(#facet-1)" opacity="0.16"/><path d="M 1388.73 813.6800000000001 Q 1323.7 629.12 1509.5 475.32 Q 1695.3 629.12 1630.27 813.6800000000001 Z" fill="url(#hero)" stroke="#e3bd68" stroke-width="9"/><circle cx="1509.5" cy="506.08000000000004" r="61.52" fill="#d6f09d" stroke="#e3bd68" stroke-width="7"/><polygon points="1509.5,474.9 1623.7,524.6 1671.0,644.5 1623.7,764.4 1509.5,814.1 1395.3,764.4 1348.0,644.5 1395.3,524.6" fill="none" stroke="#d6f09d" stroke-opacity=".46" stroke-width="5"/></g><rect x="1045" y="260" width="929" height="769" rx="38" fill="none" stroke="#e94ee1" stroke-opacity=".48" stroke-width="6"/></g>
  <g><defs><clipPath id="panel-clip-2"><rect x="74" y="1071" width="929" height="769" rx="38"/></clipPath></defs><rect x="74" y="1071" width="929" height="769" rx="38" fill="#0f152a"/><g clip-path="url(#panel-clip-2)"><polygon points="798.7,1253.1 755.5,1104.4 904.1,1022.5 1039.1,1120.7 974.0,1263.2" fill="url(#facet-2)" opacity="0.32"/><polygon points="774.0,1823.8 815.4,1626.0 958.6,1577.3 1060.4,1726.4 1019.0,1924.2 875.8,1972.9" fill="url(#facet-2)" opacity="0.13"/><polygon points="550.9,1863.5 500.6,1704.6 606.6,1570.0 789.1,1561.0 910.6,1684.4 879.7,1847.3 719.6,1927.0" fill="url(#facet-2)" opacity="0.09"/><polygon points="309.9,1692.9 117.6,1650.6 88.7,1396.5 263.2,1281.9 399.9,1465.1" fill="url(#facet-2)" opacity="0.20"/><polygon points="426.1,1748.4 284.8,1998.5 49.6,1962.4 -44.2,1676.1 97.2,1426.0 332.3,1462.2" fill="url(#facet-2)" opacity="0.23"/><polygon points="769.6,1374.3 695.8,1546.6 547.1,1578.2 435.6,1445.3 445.2,1247.9 568.7,1134.8 713.1,1191.0" fill="url(#facet-2)" opacity="0.12"/><polygon points="301.3,1592.8 117.8,1612.5 38.4,1474.4 172.9,1369.3 335.4,1442.5" fill="url(#facet-2)" opacity="0.15"/><polygon points="512.8,1541.9 532.0,1328.5 747.6,1236.7 944.0,1358.3 924.9,1571.8 709.2,1663.6" fill="url(#facet-2)" opacity="0.18"/><polygon points="377.2,1722.9 192.9,1576.8 165.4,1297.4 315.5,1095.1 530.0,1122.2 647.6,1358.4 579.6,1625.7" fill="url(#facet-2)" opacity="0.20"/><path d="M 417.73 1624.68 Q 352.7 1440.12 538.5 1286.32 Q 724.3 1440.12 659.27 1624.68 Z" fill="url(#hero)" stroke="#e3bd68" stroke-width="9"/><circle cx="538.5" cy="1317.08" r="61.52" fill="#d6f09d" stroke="#e3bd68" stroke-width="7"/><polygon points="538.5,1285.9 642.3,1325.6 697.5,1426.1 678.4,1540.3 593.7,1614.8 483.3,1614.8 398.6,1540.3 379.5,1426.1 434.7,1325.6" fill="none" stroke="#d6f09d" stroke-opacity=".46" stroke-width="5"/></g><rect x="74" y="1071" width="929" height="769" rx="38" fill="none" stroke="#e94ee1" stroke-opacity=".48" stroke-width="6"/></g>
  <g><defs><clipPath id="panel-clip-3"><rect x="1045" y="1071" width="929" height="769" rx="38"/></clipPath></defs><rect x="1045" y="1071" width="929" height="769" rx="38" fill="#0f152a"/><g clip-path="url(#panel-clip-3)"><polygon points="1307.1,1489.0 1104.3,1670.0 916.9,1459.9 1003.8,1148.9 1244.9,1166.9" fill="url(#facet-0)" opacity="0.21"/><polygon points="1262.3,1502.3 1128.2,1526.2 1036.3,1441.6 1078.4,1333.2 1212.5,1309.3 1304.4,1393.9" fill="url(#facet-0)" opacity="0.12"/><polygon points="1106.0,1484.9 1126.4,1320.7 1265.1,1234.6 1417.7,1291.4 1469.2,1448.4 1380.8,1587.2 1219.2,1603.5" fill="url(#facet-0)" opacity="0.31"/><polygon points="1744.5,1706.7 1568.1,1746.0 1481.7,1562.4 1604.6,1409.7 1767.0,1498.9" fill="url(#facet-0)" opacity="0.33"/><polygon points="1329.6,1931.7 1150.3,1835.0 1188.1,1684.5 1405.3,1630.8 1584.5,1727.6 1546.7,1878.0" fill="url(#facet-0)" opacity="0.21"/><polygon points="1561.8,1939.0 1341.5,1920.6 1216.0,1699.7 1279.8,1442.8 1484.9,1343.2 1676.8,1476.0 1711.0,1741.2" fill="url(#facet-0)" opacity="0.16"/><polygon points="1432.0,1858.5 1123.8,1930.5 972.4,1595.4 1187.0,1316.4 1471.1,1479.0" fill="url(#facet-0)" opacity="0.15"/><polygon points="1947.0,1715.5 1831.1,1718.5 1769.6,1648.7 1823.9,1576.0 1939.8,1573.1 2001.3,1642.8" fill="url(#facet-0)" opacity="0.18"/><polygon points="1813.2,1753.6 1769.9,1633.5 1827.4,1521.0 1942.5,1500.9 2028.4,1588.2 2020.5,1717.2 1924.7,1790.8" fill="url(#facet-0)" opacity="0.34"/><path d="M 1388.73 1624.68 Q 1323.7 1440.12 1509.5 1286.32 Q 1695.3 1440.12 1630.27 1624.68 Z" fill="url(#hero)" stroke="#e3bd68" stroke-width="9"/><circle cx="1509.5" cy="1317.08" r="61.52" fill="#d6f09d" stroke="#e3bd68" stroke-width="7"/><polygon points="1509.5,1285.9 1663.1,1403.1 1604.4,1592.7 1414.6,1592.7 1355.9,1403.1" fill="none" stroke="#d6f09d" stroke-opacity=".46" stroke-width="5"/></g><rect x="1045" y="1071" width="929" height="769" rx="38" fill="none" stroke="#e94ee1" stroke-opacity=".48" stroke-width="6"/></g>
  <text x="74" y="1991" fill="#d6f09d" opacity=".74" font-family="Arial,sans-serif" font-size="22">ORIGINAL STYLIZED CRYSTAL ART • 8192 × 8192 SOURCE • RELEASE 2</text>
</svg>
