<?xml version="1.0" encoding="UTF-8"?>
<svg xmlns="http://www.w3.org/2000/svg" width="8192" height="8192" viewBox="0 0 2048 2048" role="img" aria-labelledby="title desc">
  <title id="title">fusion orb family — hero illustration master</title>
  <desc id="desc">Original PaoPao Fusion stylized crystal production master PF-asset-412; authored for the Phaser client.</desc>
  <metadata>{&quot;schemaVersion&quot;:1,&quot;id&quot;:&quot;PF-asset-412&quot;,&quot;release&quot;:5,&quot;allocation&quot;:&quot;characters-orbs-bosses-rigs&quot;,&quot;subject&quot;:&quot;fusion orb family&quot;,&quot;facet&quot;:&quot;hero illustration master&quot;,&quot;original&quot;:true,&quot;artboard&quot;:[8192,8192],&quot;runtimePolicy&quot;:&quot;derive optimized Phaser variants without counting copies as masters&quot;}</metadata>
  <defs>
    <linearGradient id="back" x1="0" y1="0" x2="1" y2="1"><stop stop-color="#050713"/><stop offset=".55" stop-color="#2a0f22"/><stop offset="1" stop-color="#8c2131"/></linearGradient>
    <radialGradient id="hero" cx="32%" cy="24%"><stop stop-color="#9df0e1"/><stop offset=".38" stop-color="#e9a34e"/><stop offset="1" stop-color="#8c2131"/></radialGradient>
    <linearGradient id="facet-0"><stop stop-color="#e9a34e"/><stop offset="1" stop-color="#8c2131"/></linearGradient>
    <linearGradient id="facet-1"><stop stop-color="#e3bd68"/><stop offset="1" stop-color="#2a0f22"/></linearGradient>
    <linearGradient id="facet-2"><stop stop-color="#9df0e1"/><stop offset="1" stop-color="#e9a34e"/></linearGradient>
  </defs>
  <rect width="2048" height="2048" fill="url(#back)"/>
  <path d="M0 148 L440 0 M1608 0 L2048 148 M0 1900 L440 2048 M1608 2048 L2048 1900" stroke="#e3bd68" stroke-opacity=".42" stroke-width="8" fill="none"/>
  <text x="74" y="94" fill="#e3bd68" font-family="Georgia,serif" font-size="34" font-weight="700" letter-spacing="5">PAOPAO FUSION • MASTER PF-asset-412</text>
  <text x="74" y="164" fill="#9df0e1" font-family="Arial,sans-serif" font-size="52" font-weight="800">fusion orb family</text>
  <text x="74" y="216" fill="#e9a34e" font-family="Arial,sans-serif" font-size="28" letter-spacing="2">HERO ILLUSTRATION MASTER</text>
  <g><defs><clipPath id="panel-clip-0"><rect x="74" y="260" width="1900" height="1580" rx="38"/></clipPath></defs><rect x="74" y="260" width="1900" height="1580" rx="38" fill="#2a0f22"/><g clip-path="url(#panel-clip-0)"><polygon points="-10.6,1690.1 247.6,1273.8 826.2,1340.1 925.6,1797.2 408.4,2013.6" fill="url(#facet-0)" opacity="0.20"/><polygon points="738.3,1659.4 756.2,1249.0 1194.1,1056.6 1614.1,1274.7 1596.2,1685.1 1158.3,1877.5" fill="url(#facet-0)" opacity="0.10"/><polygon points="939.6,1774.3 698.8,2023.9 389.8,1948.2 245.3,1604.3 374.1,1251.1 679.3,1154.6 930.9,1387.5" fill="url(#facet-0)" opacity="0.17"/><polygon points="1148.8,1630.4 838.8,1664.6 705.8,1416.8 933.6,1229.3 1207.4,1361.3" fill="url(#facet-0)" opacity="0.12"/><polygon points="759.2,1893.1 614.1,1779.5 671.7,1627.6 874.4,1589.4 1019.5,1703.0 961.9,1854.9" fill="url(#facet-0)" opacity="0.30"/><polygon points="476.9,1344.2 526.0,1184.6 718.0,1114.8 908.4,1187.3 953.8,1347.5 819.9,1474.8 607.7,1473.3" fill="url(#facet-0)" opacity="0.29"/><polygon points="2150.1,806.4 1763.3,895.0 1577.0,458.5 1848.6,100.0 2202.7,315.1" fill="url(#facet-0)" opacity="0.21"/><polygon points="-200.1,1373.9 -81.9,992.5 376.7,886.4 717.0,1161.8 598.8,1543.3 140.2,1649.3" fill="url(#facet-0)" opacity="0.17"/><polygon points="256.7,1314.4 125.1,1192.1 152.8,1026.1 319.0,941.5 498.5,1002.0 556.1,1162.0 448.5,1301.1" fill="url(#facet-0)" opacity="0.13"/><path d="M 777 1397.6 Q 644 1018.4 1024 702.4 Q 1404 1018.4 1271 1397.6 Z" fill="url(#hero)" stroke="#e3bd68" stroke-width="9"/><circle cx="1024" cy="765.6" r="126.4" fill="#9df0e1" stroke="#e3bd68" stroke-width="7"/><polygon points="1024.0,701.6 1339.6,942.3 1219.0,1331.9 829.0,1331.9 708.4,942.3" fill="none" stroke="#9df0e1" stroke-opacity=".46" stroke-width="5"/></g><rect x="74" y="260" width="1900" height="1580" rx="38" fill="none" stroke="#e9a34e" stroke-opacity=".48" stroke-width="6"/></g>
  <text x="74" y="1991" fill="#9df0e1" opacity=".74" font-family="Arial,sans-serif" font-size="22">ORIGINAL STYLIZED CRYSTAL ART • 8192 × 8192 SOURCE • RELEASE 5</text>
</svg>
