<?xml version="1.0" encoding="UTF-8"?>
<svg xmlns="http://www.w3.org/2000/svg" width="8192" height="8192" viewBox="0 0 2048 2048" role="img" aria-labelledby="title desc">
  <title id="title">fusion orb family — surface source</title>
  <desc id="desc">Original PaoPao Fusion stylized crystal production master PF-asset-416; authored for the Phaser client.</desc>
  <metadata>{&quot;schemaVersion&quot;:1,&quot;id&quot;:&quot;PF-asset-416&quot;,&quot;release&quot;:5,&quot;allocation&quot;:&quot;characters-orbs-bosses-rigs&quot;,&quot;subject&quot;:&quot;fusion orb family&quot;,&quot;facet&quot;:&quot;surface source&quot;,&quot;original&quot;:true,&quot;artboard&quot;:[8192,8192],&quot;runtimePolicy&quot;:&quot;derive optimized Phaser variants without counting copies as masters&quot;}</metadata>
  <defs>
    <linearGradient id="back" x1="0" y1="0" x2="1" y2="1"><stop stop-color="#050713"/><stop offset=".55" stop-color="#270f2a"/><stop offset="1" stop-color="#8c2158"/></linearGradient>
    <radialGradient id="hero" cx="32%" cy="24%"><stop stop-color="#9df0c3"/><stop offset=".38" stop-color="#e96a4e"/><stop offset="1" stop-color="#8c2158"/></radialGradient>
    <linearGradient id="facet-0"><stop stop-color="#e96a4e"/><stop offset="1" stop-color="#8c2158"/></linearGradient>
    <linearGradient id="facet-1"><stop stop-color="#e3bd68"/><stop offset="1" stop-color="#270f2a"/></linearGradient>
    <linearGradient id="facet-2"><stop stop-color="#9df0c3"/><stop offset="1" stop-color="#e96a4e"/></linearGradient>
  </defs>
  <rect width="2048" height="2048" fill="url(#back)"/>
  <path d="M0 148 L440 0 M1608 0 L2048 148 M0 1900 L440 2048 M1608 2048 L2048 1900" stroke="#e3bd68" stroke-opacity=".42" stroke-width="8" fill="none"/>
  <text x="74" y="94" fill="#e3bd68" font-family="Georgia,serif" font-size="34" font-weight="700" letter-spacing="5">PAOPAO FUSION • MASTER PF-asset-416</text>
  <text x="74" y="164" fill="#9df0c3" font-family="Arial,sans-serif" font-size="52" font-weight="800">fusion orb family</text>
  <text x="74" y="216" fill="#e96a4e" font-family="Arial,sans-serif" font-size="28" letter-spacing="2">SURFACE SOURCE</text>
  <g><defs><clipPath id="panel-clip-0"><rect x="74" y="260" width="929" height="1580" rx="38"/></clipPath></defs><rect x="74" y="260" width="929" height="1580" rx="38" fill="#270f2a"/><g clip-path="url(#panel-clip-0)"><polygon points="242.4,1883.0 -16.8,1633.3 159.1,1327.5 527.0,1388.2 578.5,1731.5" fill="url(#facet-0)" opacity="0.21"/><polygon points="58.9,1268.5 113.0,1072.3 380.5,1007.3 593.9,1138.5 539.8,1334.7 272.3,1399.7" fill="url(#facet-0)" opacity="0.34"/><polygon points="356.3,760.6 400.7,530.9 601.7,423.6 807.9,519.5 864.2,746.4 728.0,933.4 502.0,939.7" fill="url(#facet-0)" opacity="0.23"/><polygon points="451.8,1569.0 163.1,1779.5 -152.9,1602.1 -59.5,1282.0 314.3,1261.5" fill="url(#facet-0)" opacity="0.31"/><polygon points="598.5,1850.9 627.2,1539.1 847.5,1415.9 1039.0,1604.5 1010.2,1916.3 789.9,2039.5" fill="url(#facet-0)" opacity="0.17"/><polygon points="864.5,1572.5 721.4,1795.8 499.9,1787.2 366.9,1553.3 422.5,1270.1 624.8,1150.9 821.5,1285.5" fill="url(#facet-0)" opacity="0.21"/><polygon points="-68.8,1655.2 122.3,1318.4 476.5,1411.6 504.3,1806.0 167.2,1956.6" fill="url(#facet-0)" opacity="0.22"/><polygon points="556.2,1618.0 609.3,1431.1 829.4,1376.2 996.5,1508.0 943.4,1694.8 723.3,1749.8" fill="url(#facet-0)" opacity="0.15"/><polygon points="398.5,1760.9 242.1,1645.7 214.2,1415.6 335.8,1243.9 515.4,1259.9 617.6,1451.6 565.6,1674.5" fill="url(#facet-0)" opacity="0.20"/><path d="M 417.73 1397.6 Q 352.7 1018.4 538.5 702.4 Q 724.3 1018.4 659.27 1397.6 Z" fill="url(#hero)" stroke="#e3bd68" stroke-width="9"/><circle cx="538.5" cy="765.6" r="74.32000000000001" fill="#9df0c3" stroke="#e3bd68" stroke-width="7"/><polygon points="538.5,845.2 676.4,905.2 733.6,1050.0 676.4,1194.8 538.5,1254.8 400.6,1194.8 343.4,1050.0 400.6,905.2" fill="none" stroke="#9df0c3" stroke-opacity=".46" stroke-width="5"/></g><rect x="74" y="260" width="929" height="1580" rx="38" fill="none" stroke="#e96a4e" stroke-opacity=".48" stroke-width="6"/></g>
  <g><defs><clipPath id="panel-clip-1"><rect x="1045" y="260" width="929" height="1580" rx="38"/></clipPath></defs><rect x="1045" y="260" width="929" height="1580" rx="38" fill="#270f2a"/><g clip-path="url(#panel-clip-1)"><polygon points="1518.5,554.3 1310.7,803.9 1018.7,675.1 1046.0,345.9 1354.9,271.3" fill="url(#facet-1)" opacity="0.10"/><polygon points="1537.2,1529.0 1522.6,1277.7 1720.7,1138.7 1933.3,1250.9 1947.9,1502.2 1749.8,1641.2" fill="url(#facet-1)" opacity="0.20"/><polygon points="1858.6,1302.8 1769.0,1218.0 1786.5,1101.7 1897.9,1041.6 2019.3,1082.9 2059.3,1194.5 1987.8,1292.4" fill="url(#facet-1)" opacity="0.21"/><polygon points="1487.3,1371.0 1307.3,1262.0 1338.4,1023.5 1537.7,985.2 1629.7,1200.0" fill="url(#facet-1)" opacity="0.28"/><polygon points="1070.5,1875.3 1058.8,1644.7 1286.5,1520.8 1525.9,1627.4 1537.6,1858.0 1309.9,1981.9" fill="url(#facet-1)" opacity="0.15"/><polygon points="1103.8,701.3 971.2,576.0 1011.3,415.1 1193.8,339.8 1381.4,406.8 1432.8,565.6 1309.3,696.6" fill="url(#facet-1)" opacity="0.23"/><polygon points="1576.4,1638.1 1379.9,1697.0 1254.6,1553.2 1373.7,1405.6 1572.6,1458.0" fill="url(#facet-1)" opacity="0.27"/><polygon points="1556.7,821.0 1483.3,647.4 1569.5,483.0 1729.2,492.0 1802.6,665.5 1716.4,830.0" fill="url(#facet-1)" opacity="0.32"/><polygon points="1207.3,1324.5 1069.8,1303.9 995.6,1141.0 1040.6,958.4 1170.9,893.7 1288.4,995.6 1304.6,1187.3" fill="url(#facet-1)" opacity="0.28"/><path d="M 1388.73 1397.6 Q 1323.7 1018.4 1509.5 702.4 Q 1695.3 1018.4 1630.27 1397.6 Z" fill="url(#hero)" stroke="#e3bd68" stroke-width="9"/><circle cx="1509.5" cy="765.6" r="74.32000000000001" fill="#9df0c3" stroke="#e3bd68" stroke-width="7"/><polygon points="1509.5,845.2 1634.9,893.1 1701.6,1014.4 1678.5,1152.4 1576.2,1242.5 1442.8,1242.5 1340.5,1152.4 1317.4,1014.4 1384.1,893.1" fill="none" stroke="#9df0c3" stroke-opacity=".46" stroke-width="5"/></g><rect x="1045" y="260" width="929" height="1580" rx="38" fill="none" stroke="#e96a4e" stroke-opacity=".48" stroke-width="6"/></g>
  <text x="74" y="1991" fill="#9df0c3" opacity=".74" font-family="Arial,sans-serif" font-size="22">ORIGINAL STYLIZED CRYSTAL ART • 8192 × 8192 SOURCE • RELEASE 5</text>
</svg>
