<?xml version="1.0" encoding="UTF-8"?>
<svg xmlns="http://www.w3.org/2000/svg" width="8192" height="8192" viewBox="0 0 2048 2048" role="img" aria-labelledby="title desc">
  <title id="title">fusion orb family — presentation render</title>
  <desc id="desc">Original PaoPao Fusion stylized crystal production master PF-asset-420; authored for the Phaser client.</desc>
  <metadata>{&quot;schemaVersion&quot;:1,&quot;id&quot;:&quot;PF-asset-420&quot;,&quot;release&quot;:5,&quot;allocation&quot;:&quot;characters-orbs-bosses-rigs&quot;,&quot;subject&quot;:&quot;fusion orb family&quot;,&quot;facet&quot;:&quot;presentation render&quot;,&quot;original&quot;:true,&quot;artboard&quot;:[8192,8192],&quot;runtimePolicy&quot;:&quot;derive optimized Phaser variants without counting copies as masters&quot;}</metadata>
  <defs>
    <linearGradient id="back" x1="0" y1="0" x2="1" y2="1"><stop stop-color="#050713"/><stop offset=".55" stop-color="#0f232a"/><stop offset="1" stop-color="#21338c"/></linearGradient>
    <radialGradient id="hero" cx="32%" cy="24%"><stop stop-color="#f0e09d"/><stop offset=".38" stop-color="#a14ee9"/><stop offset="1" stop-color="#21338c"/></radialGradient>
    <linearGradient id="facet-0"><stop stop-color="#a14ee9"/><stop offset="1" stop-color="#21338c"/></linearGradient>
    <linearGradient id="facet-1"><stop stop-color="#e3bd68"/><stop offset="1" stop-color="#0f232a"/></linearGradient>
    <linearGradient id="facet-2"><stop stop-color="#f0e09d"/><stop offset="1" stop-color="#a14ee9"/></linearGradient>
  </defs>
  <rect width="2048" height="2048" fill="url(#back)"/>
  <path d="M0 148 L440 0 M1608 0 L2048 148 M0 1900 L440 2048 M1608 2048 L2048 1900" stroke="#e3bd68" stroke-opacity=".42" stroke-width="8" fill="none"/>
  <text x="74" y="94" fill="#e3bd68" font-family="Georgia,serif" font-size="34" font-weight="700" letter-spacing="5">PAOPAO FUSION • MASTER PF-asset-420</text>
  <text x="74" y="164" fill="#f0e09d" font-family="Arial,sans-serif" font-size="52" font-weight="800">fusion orb family</text>
  <text x="74" y="216" fill="#a14ee9" font-family="Arial,sans-serif" font-size="28" letter-spacing="2">PRESENTATION RENDER</text>
  <g><defs><clipPath id="panel-clip-0"><rect x="74" y="260" width="1900" height="1580" rx="38"/></clipPath></defs><rect x="74" y="260" width="1900" height="1580" rx="38" fill="#0f232a"/><g clip-path="url(#panel-clip-0)"><polygon points="402.2,977.9 192.7,790.2 283.1,502.9 548.6,513.1 622.2,806.7" fill="url(#facet-0)" opacity="0.12"/><polygon points="522.0,400.1 646.3,100.9 937.8,72.9 1105.0,344.1 980.7,643.4 689.2,671.3" fill="url(#facet-0)" opacity="0.11"/><polygon points="186.4,1097.0 269.2,767.8 523.9,644.6 758.7,820.1 796.8,1162.2 609.5,1413.2 337.9,1384.2" fill="url(#facet-0)" opacity="0.32"/><polygon points="876.7,999.0 611.6,1390.9 238.7,1189.0 273.3,672.3 667.6,554.8" fill="url(#facet-0)" opacity="0.26"/><polygon points="565.6,2055.8 447.8,1697.3 640.4,1392.1 950.7,1445.4 1068.4,1803.9 875.9,2109.1" fill="url(#facet-0)" opacity="0.25"/><polygon points="705.9,1988.3 404.3,2133.5 88.6,2014.1 -3.2,1720.0 197.8,1472.6 540.3,1458.3 766.5,1687.8" fill="url(#facet-0)" opacity="0.32"/><polygon points="1120.3,1092.9 1094.9,798.7 1333.1,680.3 1505.7,901.5 1374.1,1156.5" fill="url(#facet-0)" opacity="0.12"/><polygon points="370.8,1401.5 202.8,1194.5 276.0,925.1 517.1,862.7 685.1,1069.7 611.9,1339.1" fill="url(#facet-0)" opacity="0.30"/><polygon points="487.0,1693.3 55.1,1667.2 -185.8,1407.1 -54.4,1108.9 350.4,997.2 723.8,1156.1 784.5,1465.9" fill="url(#facet-0)" opacity="0.30"/><path d="M 777 1397.6 Q 644 1018.4 1024 702.4 Q 1404 1018.4 1271 1397.6 Z" fill="url(#hero)" stroke="#e3bd68" stroke-width="9"/><circle cx="1024" cy="765.6" r="126.4" fill="#f0e09d" stroke="#e3bd68" stroke-width="7"/><polygon points="1024.0,701.6 1258.6,803.7 1355.8,1050.0 1258.6,1296.3 1024.0,1398.4 789.4,1296.3 692.2,1050.0 789.4,803.7" fill="none" stroke="#f0e09d" stroke-opacity=".46" stroke-width="5"/></g><rect x="74" y="260" width="1900" height="1580" rx="38" fill="none" stroke="#a14ee9" stroke-opacity=".48" stroke-width="6"/></g>
  <text x="74" y="1991" fill="#f0e09d" opacity=".74" font-family="Arial,sans-serif" font-size="22">ORIGINAL STYLIZED CRYSTAL ART • 8192 × 8192 SOURCE • RELEASE 5</text>
</svg>
