<?xml version="1.0" encoding="UTF-8"?>
<svg xmlns="http://www.w3.org/2000/svg" width="8192" height="8192" viewBox="0 0 2048 2048" role="img" aria-labelledby="title desc">
  <title id="title">Inferno Sovereign — hero illustration master</title>
  <desc id="desc">Original PaoPao Fusion stylized crystal production master PF-asset-202; authored for the Phaser client.</desc>
  <metadata>{&quot;schemaVersion&quot;:1,&quot;id&quot;:&quot;PF-asset-202&quot;,&quot;release&quot;:3,&quot;allocation&quot;:&quot;characters-orbs-bosses-rigs&quot;,&quot;subject&quot;:&quot;Inferno Sovereign&quot;,&quot;facet&quot;:&quot;hero illustration master&quot;,&quot;original&quot;:true,&quot;artboard&quot;:[8192,8192],&quot;runtimePolicy&quot;:&quot;derive optimized Phaser variants without counting copies as masters&quot;}</metadata>
  <defs>
    <linearGradient id="back" x1="0" y1="0" x2="1" y2="1"><stop stop-color="#050713"/><stop offset=".55" stop-color="#210f2a"/><stop offset="1" stop-color="#8c2172"/></linearGradient>
    <radialGradient id="hero" cx="32%" cy="24%"><stop stop-color="#9df0af"/><stop offset=".38" stop-color="#e94e56"/><stop offset="1" stop-color="#8c2172"/></radialGradient>
    <linearGradient id="facet-0"><stop stop-color="#e94e56"/><stop offset="1" stop-color="#8c2172"/></linearGradient>
    <linearGradient id="facet-1"><stop stop-color="#e3bd68"/><stop offset="1" stop-color="#210f2a"/></linearGradient>
    <linearGradient id="facet-2"><stop stop-color="#9df0af"/><stop offset="1" stop-color="#e94e56"/></linearGradient>
  </defs>
  <rect width="2048" height="2048" fill="url(#back)"/>
  <path d="M0 148 L440 0 M1608 0 L2048 148 M0 1900 L440 2048 M1608 2048 L2048 1900" stroke="#e3bd68" stroke-opacity=".42" stroke-width="8" fill="none"/>
  <text x="74" y="94" fill="#e3bd68" font-family="Georgia,serif" font-size="34" font-weight="700" letter-spacing="5">PAOPAO FUSION • MASTER PF-asset-202</text>
  <text x="74" y="164" fill="#9df0af" font-family="Arial,sans-serif" font-size="52" font-weight="800">Inferno Sovereign</text>
  <text x="74" y="216" fill="#e94e56" font-family="Arial,sans-serif" font-size="28" letter-spacing="2">HERO ILLUSTRATION MASTER</text>
  <g><defs><clipPath id="panel-clip-0"><rect x="74" y="260" width="1900" height="1580" rx="38"/></clipPath></defs><rect x="74" y="260" width="1900" height="1580" rx="38" fill="#210f2a"/><g clip-path="url(#panel-clip-0)"><polygon points="319.6,1462.0 140.8,1221.3 273.9,940.2 534.9,1007.2 563.2,1329.7" fill="url(#facet-0)" opacity="0.15"/><polygon points="284.9,1482.1 -219.2,1343.3 -329.5,903.8 64.4,603.0 568.5,741.8 678.8,1181.4" fill="url(#facet-0)" opacity="0.11"/><polygon points="1010.7,1053.7 1011.8,873.7 1224.5,762.0 1488.7,802.8 1605.4,965.3 1486.7,1127.2 1222.0,1166.5" fill="url(#facet-0)" opacity="0.27"/><polygon points="1276.3,1522.0 978.1,1436.7 958.9,1095.2 1245.2,969.3 1441.3,1233.1" fill="url(#facet-0)" opacity="0.19"/><polygon points="611.0,1876.0 342.0,1655.3 380.2,1287.0 687.4,1139.5 956.4,1360.3 918.2,1728.6" fill="url(#facet-0)" opacity="0.20"/><polygon points="1260.5,2137.1 934.4,2155.6 720.4,1822.9 779.6,1389.6 1067.4,1181.9 1367.1,1356.2 1453.0,1781.3" fill="url(#facet-0)" opacity="0.16"/><polygon points="418.4,1396.0 248.0,1149.2 403.5,890.2 669.9,976.9 679.2,1289.5" fill="url(#facet-0)" opacity="0.20"/><polygon points="1239.1,1062.9 1013.1,1343.8 700.6,1245.5 614.2,866.3 840.2,585.4 1152.6,683.7" fill="url(#facet-0)" opacity="0.32"/><polygon points="1096.1,1120.4 622.6,1055.2 387.9,702.6 568.7,328.1 1028.9,213.7 1421.9,445.6 1451.9,849.1" fill="url(#facet-0)" opacity="0.18"/><path d="M 777 1397.6 Q 644 1018.4 1024 702.4 Q 1404 1018.4 1271 1397.6 Z" fill="url(#hero)" stroke="#e3bd68" stroke-width="9"/><circle cx="1024" cy="765.6" r="126.4" fill="#9df0af" stroke="#e3bd68" stroke-width="7"/><polygon points="1024.0,701.6 1311.3,875.8 1311.3,1224.2 1024.0,1398.4 736.7,1224.2 736.7,875.8" fill="none" stroke="#9df0af" stroke-opacity=".46" stroke-width="5"/></g><rect x="74" y="260" width="1900" height="1580" rx="38" fill="none" stroke="#e94e56" stroke-opacity=".48" stroke-width="6"/></g>
  <text x="74" y="1991" fill="#9df0af" opacity=".74" font-family="Arial,sans-serif" font-size="22">ORIGINAL STYLIZED CRYSTAL ART • 8192 × 8192 SOURCE • RELEASE 3</text>
</svg>
