<?xml version="1.0" encoding="UTF-8"?>
<svg xmlns="http://www.w3.org/2000/svg" width="8192" height="8192" viewBox="0 0 2048 2048" role="img" aria-labelledby="title desc">
  <title id="title">release promotion — illustration master</title>
  <desc id="desc">Original PaoPao Fusion stylized crystal production master PF-asset-498; authored for the Phaser client.</desc>
  <metadata>{&quot;schemaVersion&quot;:1,&quot;id&quot;:&quot;PF-asset-498&quot;,&quot;release&quot;:5,&quot;allocation&quot;:&quot;tutorial-accessibility-promotion&quot;,&quot;subject&quot;:&quot;release promotion&quot;,&quot;facet&quot;:&quot;illustration master&quot;,&quot;original&quot;:true,&quot;artboard&quot;:[8192,8192],&quot;runtimePolicy&quot;:&quot;derive optimized Phaser variants without counting copies as masters&quot;}</metadata>
  <defs>
    <linearGradient id="back" x1="0" y1="0" x2="1" y2="1"><stop stop-color="#050713"/><stop offset=".55" stop-color="#0f192a"/><stop offset="1" stop-color="#36218c"/></linearGradient>
    <radialGradient id="hero" cx="32%" cy="24%"><stop stop-color="#e3f09d"/><stop offset=".38" stop-color="#da4ee9"/><stop offset="1" stop-color="#36218c"/></radialGradient>
    <linearGradient id="facet-0"><stop stop-color="#da4ee9"/><stop offset="1" stop-color="#36218c"/></linearGradient>
    <linearGradient id="facet-1"><stop stop-color="#e3bd68"/><stop offset="1" stop-color="#0f192a"/></linearGradient>
    <linearGradient id="facet-2"><stop stop-color="#e3f09d"/><stop offset="1" stop-color="#da4ee9"/></linearGradient>
  </defs>
  <rect width="2048" height="2048" fill="url(#back)"/>
  <path d="M0 148 L440 0 M1608 0 L2048 148 M0 1900 L440 2048 M1608 2048 L2048 1900" stroke="#e3bd68" stroke-opacity=".42" stroke-width="8" fill="none"/>
  <text x="74" y="94" fill="#e3bd68" font-family="Georgia,serif" font-size="34" font-weight="700" letter-spacing="5">PAOPAO FUSION • MASTER PF-asset-498</text>
  <text x="74" y="164" fill="#e3f09d" font-family="Arial,sans-serif" font-size="52" font-weight="800">release promotion</text>
  <text x="74" y="216" fill="#da4ee9" font-family="Arial,sans-serif" font-size="28" letter-spacing="2">ILLUSTRATION MASTER</text>
  <g><defs><clipPath id="panel-clip-0"><rect x="74" y="260" width="1900" height="1580" rx="38"/></clipPath></defs><rect x="74" y="260" width="1900" height="1580" rx="38" fill="#0f192a"/><g clip-path="url(#panel-clip-0)"><polygon points="1034.7,896.6 1255.4,160.8 1832.9,221.7 1969.2,995.1 1475.9,1412.2" fill="url(#facet-0)" opacity="0.33"/><polygon points="781.5,971.3 495.4,943.1 377.4,688.2 545.6,461.5 831.7,489.6 949.7,744.5" fill="url(#facet-0)" opacity="0.15"/><polygon points="638.1,780.7 415.7,630.7 438.1,410.6 688.4,286.2 978.2,351.0 1089.2,556.4 937.8,747.6" fill="url(#facet-0)" opacity="0.29"/><polygon points="1361.7,639.6 1543.9,174.1 2111.6,180.3 2280.3,649.6 1816.8,933.5" fill="url(#facet-0)" opacity="0.27"/><polygon points="1451.0,1613.6 1359.3,1346.5 1542.0,1132.5 1816.5,1185.7 1908.2,1452.8 1725.5,1666.8" fill="url(#facet-0)" opacity="0.23"/><polygon points="817.7,767.1 790.3,606.7 941.1,490.6 1156.6,506.3 1274.4,642.0 1205.9,795.5 1002.7,851.1" fill="url(#facet-0)" opacity="0.31"/><polygon points="1353.7,900.2 1115.2,972.1 969.5,778.9 1117.9,587.6 1355.4,662.6" fill="url(#facet-0)" opacity="0.16"/><polygon points="1863.6,1572.8 1464.9,1685.2 1185.5,1321.4 1304.8,845.1 1703.6,732.7 1982.9,1096.5" fill="url(#facet-0)" opacity="0.32"/><polygon points="947.3,1282.8 618.8,1394.4 302.9,1262.4 237.4,986.2 471.7,773.9 829.4,785.2 1041.0,1011.7" fill="url(#facet-0)" opacity="0.21"/><polygon points="1024.0,701.6 1258.6,803.7 1355.8,1050.0 1258.6,1296.3 1024.0,1398.4 789.4,1296.3 692.2,1050.0 789.4,803.7" fill="url(#hero)" stroke="#e3bd68" stroke-width="9"/><circle cx="1024" cy="1050" r="134.3" fill="#e3f09d" opacity=".84"/><polygon points="1024.0,701.6 1258.6,803.7 1355.8,1050.0 1258.6,1296.3 1024.0,1398.4 789.4,1296.3 692.2,1050.0 789.4,803.7" fill="none" stroke="#e3f09d" stroke-opacity=".46" stroke-width="5"/></g><rect x="74" y="260" width="1900" height="1580" rx="38" fill="none" stroke="#da4ee9" stroke-opacity=".48" stroke-width="6"/></g>
  <text x="74" y="1991" fill="#e3f09d" opacity=".74" font-family="Arial,sans-serif" font-size="22">ORIGINAL STYLIZED CRYSTAL ART • 8192 × 8192 SOURCE • RELEASE 5</text>
</svg>
