<?xml version="1.0" encoding="UTF-8"?>
<svg xmlns="http://www.w3.org/2000/svg" width="8192" height="8192" viewBox="0 0 2048 2048" role="img" aria-labelledby="title desc">
  <title id="title">hand controls — icon family master</title>
  <desc id="desc">Original PaoPao Fusion stylized crystal production master PF-asset-169; authored for the Phaser client.</desc>
  <metadata>{&quot;schemaVersion&quot;:1,&quot;id&quot;:&quot;PF-asset-169&quot;,&quot;release&quot;:2,&quot;allocation&quot;:&quot;ui-icons-illustrations&quot;,&quot;subject&quot;:&quot;hand controls&quot;,&quot;facet&quot;:&quot;icon family master&quot;,&quot;original&quot;:true,&quot;artboard&quot;:[8192,8192],&quot;runtimePolicy&quot;:&quot;derive optimized Phaser variants without counting copies as masters&quot;}</metadata>
  <defs>
    <linearGradient id="back" x1="0" y1="0" x2="1" y2="1"><stop stop-color="#050713"/><stop offset=".55" stop-color="#0f1a2a"/><stop offset="1" stop-color="#31218c"/></linearGradient>
    <radialGradient id="hero" cx="32%" cy="24%"><stop stop-color="#e7f09d"/><stop offset=".38" stop-color="#d24ee9"/><stop offset="1" stop-color="#31218c"/></radialGradient>
    <linearGradient id="facet-0"><stop stop-color="#d24ee9"/><stop offset="1" stop-color="#31218c"/></linearGradient>
    <linearGradient id="facet-1"><stop stop-color="#e3bd68"/><stop offset="1" stop-color="#0f1a2a"/></linearGradient>
    <linearGradient id="facet-2"><stop stop-color="#e7f09d"/><stop offset="1" stop-color="#d24ee9"/></linearGradient>
  </defs>
  <rect width="2048" height="2048" fill="url(#back)"/>
  <path d="M0 148 L440 0 M1608 0 L2048 148 M0 1900 L440 2048 M1608 2048 L2048 1900" stroke="#e3bd68" stroke-opacity=".42" stroke-width="8" fill="none"/>
  <text x="74" y="94" fill="#e3bd68" font-family="Georgia,serif" font-size="34" font-weight="700" letter-spacing="5">PAOPAO FUSION • MASTER PF-asset-169</text>
  <text x="74" y="164" fill="#e7f09d" font-family="Arial,sans-serif" font-size="52" font-weight="800">hand controls</text>
  <text x="74" y="216" fill="#d24ee9" font-family="Arial,sans-serif" font-size="28" letter-spacing="2">ICON FAMILY MASTER</text>
  <g><defs><clipPath id="panel-clip-0"><rect x="74" y="260" width="929" height="769" rx="38"/></clipPath></defs><rect x="74" y="260" width="929" height="769" rx="38" fill="#0f1a2a"/><g clip-path="url(#panel-clip-0)"><polygon points="1174.8,997.2 925.7,1208.1 680.6,990.6 778.3,645.3 1083.7,649.4" fill="url(#facet-0)" opacity="0.15"/><polygon points="945.8,757.0 678.8,795.5 520.7,501.4 629.5,168.9 896.5,130.3 1054.7,424.4" fill="url(#facet-0)" opacity="0.15"/><polygon points="632.2,885.6 519.1,1026.7 358.4,1006.5 271.1,840.3 322.9,653.2 474.9,586.1 612.5,689.5" fill="url(#facet-0)" opacity="0.13"/><polygon points="879.7,1023.3 608.4,1026.1 521.1,834.7 738.4,713.7 960.1,830.3" fill="url(#facet-0)" opacity="0.19"/><polygon points="361.1,823.3 247.1,801.9 203.4,653.9 273.7,527.1 387.7,548.5 431.4,696.5" fill="url(#facet-0)" opacity="0.10"/><polygon points="164.3,655.4 143.7,488.4 270.4,369.2 449.0,387.6 545.0,529.7 486.1,688.5 316.7,744.4" fill="url(#facet-0)" opacity="0.34"/><polygon points="463.9,662.2 260.3,722.4 149.8,508.1 285.1,315.6 479.2,410.8" fill="url(#facet-0)" opacity="0.17"/><polygon points="389.0,980.0 152.2,902.0 87.0,602.5 258.6,381.0 495.4,459.0 560.6,758.5" fill="url(#facet-0)" opacity="0.22"/><polygon points="497.2,1021.9 376.0,1027.9 295.7,937.3 316.8,818.3 423.4,760.5 535.2,807.5 568.0,923.8" fill="url(#facet-0)" opacity="0.18"/><polygon points="538.5,474.9 664.8,538.8 695.9,682.2 608.6,797.3 468.4,797.3 381.1,682.2 412.2,538.8" fill="url(#hero)" stroke="#e3bd68" stroke-width="9"/><circle cx="538.5" cy="644.5" r="65.36500000000001" fill="#e7f09d" opacity=".84"/><polygon points="538.5,474.9 664.8,538.8 695.9,682.2 608.6,797.3 468.4,797.3 381.1,682.2 412.2,538.8" fill="none" stroke="#e7f09d" stroke-opacity=".46" stroke-width="5"/></g><rect x="74" y="260" width="929" height="769" rx="38" fill="none" stroke="#d24ee9" stroke-opacity=".48" stroke-width="6"/></g>
  <g><defs><clipPath id="panel-clip-1"><rect x="1045" y="260" width="929" height="769" rx="38"/></clipPath></defs><rect x="1045" y="260" width="929" height="769" rx="38" fill="#0f1a2a"/><g clip-path="url(#panel-clip-1)"><polygon points="1304.9,518.0 1352.6,363.3 1496.8,367.2 1538.1,524.2 1419.5,617.4" fill="url(#facet-1)" opacity="0.28"/><polygon points="1664.9,1068.8 1511.3,1041.3 1454.6,870.4 1551.7,727.2 1705.3,754.7 1762.0,925.5" fill="url(#facet-1)" opacity="0.26"/><polygon points="1643.7,542.1 1493.9,687.5 1286.4,661.7 1177.2,484.0 1248.7,288.3 1447.0,222.0 1622.8,334.9" fill="url(#facet-1)" opacity="0.29"/><polygon points="1459.0,505.5 1370.4,423.7 1448.8,336.3 1585.8,364.2 1592.1,468.8" fill="url(#facet-1)" opacity="0.34"/><polygon points="1672.0,619.3 1482.2,719.7 1299.2,607.7 1306.0,395.3 1495.8,294.9 1678.8,406.9" fill="url(#facet-1)" opacity="0.32"/><polygon points="1361.2,507.7 1389.0,250.9 1584.2,115.3 1799.7,203.1 1873.4,448.1 1749.6,665.8 1521.7,692.3" fill="url(#facet-1)" opacity="0.20"/><polygon points="1343.8,716.4 1305.1,502.3 1534.8,405.1 1715.5,559.1 1597.5,751.5" fill="url(#facet-1)" opacity="0.14"/><polygon points="1725.5,893.8 1501.4,887.1 1393.6,620.5 1510.0,360.7 1734.1,367.4 1841.9,633.9" fill="url(#facet-1)" opacity="0.25"/><polygon points="1884.3,547.0 1779.6,730.2 1611.4,730.5 1506.3,547.8 1543.5,319.6 1694.9,217.8 1846.6,319.0" fill="url(#facet-1)" opacity="0.31"/><polygon points="1509.5,474.9 1623.7,524.6 1671.0,644.5 1623.7,764.4 1509.5,814.1 1395.3,764.4 1348.0,644.5 1395.3,524.6" fill="url(#hero)" stroke="#e3bd68" stroke-width="9"/><circle cx="1509.5" cy="644.5" r="65.36500000000001" fill="#e7f09d" opacity=".84"/><polygon points="1509.5,474.9 1623.7,524.6 1671.0,644.5 1623.7,764.4 1509.5,814.1 1395.3,764.4 1348.0,644.5 1395.3,524.6" fill="none" stroke="#e7f09d" stroke-opacity=".46" stroke-width="5"/></g><rect x="1045" y="260" width="929" height="769" rx="38" fill="none" stroke="#d24ee9" stroke-opacity=".48" stroke-width="6"/></g>
  <g><defs><clipPath id="panel-clip-2"><rect x="74" y="1071" width="929" height="769" rx="38"/></clipPath></defs><rect x="74" y="1071" width="929" height="769" rx="38" fill="#0f1a2a"/><g clip-path="url(#panel-clip-2)"><polygon points="327.2,1299.1 118.7,1313.2 37.1,1162.8 195.2,1055.8 374.5,1140.0" fill="url(#facet-2)" opacity="0.24"/><polygon points="472.3,1375.6 347.3,1430.5 230.9,1362.2 239.7,1238.8 364.8,1183.9 481.1,1252.3" fill="url(#facet-2)" opacity="0.31"/><polygon points="215.8,1841.2 241.2,1625.3 420.2,1511.2 617.8,1585.0 685.3,1791.0 571.9,1974.1 362.9,1996.4" fill="url(#facet-2)" opacity="0.16"/><polygon points="722.5,1360.9 544.8,1366.4 486.1,1136.0 627.5,988.2 773.6,1127.1" fill="url(#facet-2)" opacity="0.33"/><polygon points="314.2,1743.1 151.5,1736.3 78.5,1634.8 168.2,1540.0 331.0,1546.8 404.0,1648.3" fill="url(#facet-2)" opacity="0.29"/><polygon points="1079.4,1684.4 967.5,1841.3 795.5,1834.3 692.7,1668.8 736.7,1469.3 894.2,1386.1 1046.7,1481.9" fill="url(#facet-2)" opacity="0.26"/><polygon points="442.6,1331.3 614.6,1056.6 917.1,1143.2 932.0,1471.4 638.7,1587.7" fill="url(#facet-2)" opacity="0.32"/><polygon points="597.5,1490.3 379.8,1598.3 184.3,1448.7 206.6,1191.3 424.3,1083.4 619.7,1232.9" fill="url(#facet-2)" opacity="0.33"/><polygon points="304.8,1745.3 148.9,1733.7 60.5,1601.9 106.2,1448.9 251.5,1390.1 387.1,1469.7 410.8,1627.8" fill="url(#facet-2)" opacity="0.29"/><polygon points="538.5,1285.9 642.3,1325.6 697.5,1426.1 678.4,1540.3 593.7,1614.8 483.3,1614.8 398.6,1540.3 379.5,1426.1 434.7,1325.6" fill="url(#hero)" stroke="#e3bd68" stroke-width="9"/><circle cx="538.5" cy="1455.5" r="65.36500000000001" fill="#e7f09d" opacity=".84"/><polygon points="538.5,1285.9 642.3,1325.6 697.5,1426.1 678.4,1540.3 593.7,1614.8 483.3,1614.8 398.6,1540.3 379.5,1426.1 434.7,1325.6" fill="none" stroke="#e7f09d" stroke-opacity=".46" stroke-width="5"/></g><rect x="74" y="1071" width="929" height="769" rx="38" fill="none" stroke="#d24ee9" stroke-opacity=".48" stroke-width="6"/></g>
  <g><defs><clipPath id="panel-clip-3"><rect x="1045" y="1071" width="929" height="769" rx="38"/></clipPath></defs><rect x="1045" y="1071" width="929" height="769" rx="38" fill="#0f1a2a"/><g clip-path="url(#panel-clip-3)"><polygon points="1384.7,1808.3 1313.8,1588.0 1495.4,1450.5 1678.5,1585.8 1610.0,1806.9" fill="url(#facet-0)" opacity="0.22"/><polygon points="1377.8,1870.5 1271.3,1913.7 1187.6,1822.0 1210.4,1687.1 1317.0,1643.9 1400.7,1735.6" fill="url(#facet-0)" opacity="0.33"/><polygon points="1231.5,1799.9 1148.1,1865.1 1052.9,1828.7 1017.7,1718.2 1068.9,1616.7 1168.0,1600.8 1240.4,1682.3" fill="url(#facet-0)" opacity="0.31"/><polygon points="1183.8,1600.2 1303.6,1304.5 1559.2,1359.8 1597.2,1689.8 1365.2,1838.3" fill="url(#facet-0)" opacity="0.12"/><polygon points="1936.7,1400.3 1803.0,1440.4 1710.2,1306.0 1751.0,1131.5 1884.6,1091.4 1977.4,1225.8" fill="url(#facet-0)" opacity="0.21"/><polygon points="1712.9,1425.9 1560.0,1364.1 1518.0,1217.5 1618.6,1096.3 1785.9,1091.9 1894.1,1207.6 1861.6,1356.2" fill="url(#facet-0)" opacity="0.19"/><polygon points="1165.5,1688.3 1234.2,1559.6 1403.8,1573.8 1439.8,1711.3 1292.5,1782.1" fill="url(#facet-0)" opacity="0.32"/><polygon points="2008.3,1234.2 1935.0,1297.0 1816.6,1286.2 1771.6,1212.5 1844.9,1149.7 1963.3,1160.5" fill="url(#facet-0)" opacity="0.13"/><polygon points="1782.6,1889.7 1554.1,1860.1 1435.6,1669.5 1516.4,1461.5 1735.6,1392.6 1928.2,1514.8 1949.1,1736.0" fill="url(#facet-0)" opacity="0.33"/><polygon points="1509.5,1285.9 1663.1,1403.1 1604.4,1592.7 1414.6,1592.7 1355.9,1403.1" fill="url(#hero)" stroke="#e3bd68" stroke-width="9"/><circle cx="1509.5" cy="1455.5" r="65.36500000000001" fill="#e7f09d" opacity=".84"/><polygon points="1509.5,1285.9 1663.1,1403.1 1604.4,1592.7 1414.6,1592.7 1355.9,1403.1" fill="none" stroke="#e7f09d" stroke-opacity=".46" stroke-width="5"/></g><rect x="1045" y="1071" width="929" height="769" rx="38" fill="none" stroke="#d24ee9" stroke-opacity=".48" stroke-width="6"/></g>
  <text x="74" y="1991" fill="#e7f09d" opacity=".74" font-family="Arial,sans-serif" font-size="22">ORIGINAL STYLIZED CRYSTAL ART • 8192 × 8192 SOURCE • RELEASE 2</text>
</svg>
