<?xml version="1.0" encoding="UTF-8"?>
<svg xmlns="http://www.w3.org/2000/svg" width="8192" height="8192" viewBox="0 0 2048 2048" role="img" aria-labelledby="title desc">
  <title id="title">arena — empty-state illustration</title>
  <desc id="desc">Original PaoPao Fusion stylized crystal production master PF-asset-375; authored for the Phaser client.</desc>
  <metadata>{&quot;schemaVersion&quot;:1,&quot;id&quot;:&quot;PF-asset-375&quot;,&quot;release&quot;:4,&quot;allocation&quot;:&quot;ui-icons-illustrations&quot;,&quot;subject&quot;:&quot;arena&quot;,&quot;facet&quot;:&quot;empty-state illustration&quot;,&quot;original&quot;:true,&quot;artboard&quot;:[8192,8192],&quot;runtimePolicy&quot;:&quot;derive optimized Phaser variants without counting copies as masters&quot;}</metadata>
  <defs>
    <linearGradient id="back" x1="0" y1="0" x2="1" y2="1"><stop stop-color="#050713"/><stop offset=".55" stop-color="#252a0f"/><stop offset="1" stop-color="#3e8c21"/></linearGradient>
    <radialGradient id="hero" cx="32%" cy="24%"><stop stop-color="#d89df0"/><stop offset=".38" stop-color="#4ee991"/><stop offset="1" stop-color="#3e8c21"/></radialGradient>
    <linearGradient id="facet-0"><stop stop-color="#4ee991"/><stop offset="1" stop-color="#3e8c21"/></linearGradient>
    <linearGradient id="facet-1"><stop stop-color="#e3bd68"/><stop offset="1" stop-color="#252a0f"/></linearGradient>
    <linearGradient id="facet-2"><stop stop-color="#d89df0"/><stop offset="1" stop-color="#4ee991"/></linearGradient>
  </defs>
  <rect width="2048" height="2048" fill="url(#back)"/>
  <path d="M0 148 L440 0 M1608 0 L2048 148 M0 1900 L440 2048 M1608 2048 L2048 1900" stroke="#e3bd68" stroke-opacity=".42" stroke-width="8" fill="none"/>
  <text x="74" y="94" fill="#e3bd68" font-family="Georgia,serif" font-size="34" font-weight="700" letter-spacing="5">PAOPAO FUSION • MASTER PF-asset-375</text>
  <text x="74" y="164" fill="#d89df0" font-family="Arial,sans-serif" font-size="52" font-weight="800">arena</text>
  <text x="74" y="216" fill="#4ee991" font-family="Arial,sans-serif" font-size="28" letter-spacing="2">EMPTY-STATE ILLUSTRATION</text>
  <g><defs><clipPath id="panel-clip-0"><rect x="74" y="260" width="929" height="769" rx="38"/></clipPath></defs><rect x="74" y="260" width="929" height="769" rx="38" fill="#252a0f"/><g clip-path="url(#panel-clip-0)"><polygon points="-94.6,374.7 -12.6,153.4 263.4,150.5 352.1,369.9 130.8,508.5" fill="url(#facet-0)" opacity="0.26"/><polygon points="734.6,1121.8 618.4,900.1 753.2,689.0 1004.1,699.7 1120.3,921.4 985.5,1132.5" fill="url(#facet-0)" opacity="0.27"/><polygon points="107.9,577.7 -59.0,477.1 -77.0,295.2 67.3,168.8 265.3,193.2 368.0,350.0 297.9,521.1" fill="url(#facet-0)" opacity="0.29"/><polygon points="566.7,404.3 573.1,249.6 759.3,206.7 868.1,334.8 749.1,456.9" fill="url(#facet-0)" opacity="0.15"/><polygon points="276.4,761.0 165.9,485.7 298.1,226.3 540.7,242.2 651.2,517.5 519.0,776.9" fill="url(#facet-0)" opacity="0.15"/><polygon points="798.5,1199.7 580.8,1167.5 464.3,925.1 536.8,655.0 743.6,560.6 929.1,713.0 953.5,997.4" fill="url(#facet-0)" opacity="0.17"/><polygon points="-110.5,508.6 37.5,270.6 310.3,337.4 330.9,616.7 70.9,722.5" fill="url(#facet-0)" opacity="0.16"/><polygon points="331.1,504.6 301.8,350.0 441.8,250.8 611.0,306.1 640.3,460.7 500.3,560.0" fill="url(#facet-0)" opacity="0.31"/><polygon points="642.8,796.4 534.4,739.1 532.1,645.2 637.6,585.5 771.5,604.8 832.9,688.7 775.6,774.0" fill="url(#facet-0)" opacity="0.34"/><polygon points="538.5,474.9 642.3,514.6 697.5,615.1 678.4,729.3 593.7,803.8 483.3,803.8 398.6,729.3 379.5,615.1 434.7,514.6" fill="url(#hero)" stroke="#e3bd68" stroke-width="9"/><circle cx="538.5" cy="644.5" r="65.36500000000001" fill="#d89df0" opacity=".84"/><polygon points="538.5,474.9 642.3,514.6 697.5,615.1 678.4,729.3 593.7,803.8 483.3,803.8 398.6,729.3 379.5,615.1 434.7,514.6" fill="none" stroke="#d89df0" stroke-opacity=".46" stroke-width="5"/></g><rect x="74" y="260" width="929" height="769" rx="38" fill="none" stroke="#4ee991" stroke-opacity=".48" stroke-width="6"/></g>
  <g><defs><clipPath id="panel-clip-1"><rect x="1045" y="260" width="929" height="769" rx="38"/></clipPath></defs><rect x="1045" y="260" width="929" height="769" rx="38" fill="#252a0f"/><g clip-path="url(#panel-clip-1)"><polygon points="1272.6,1030.1 1237.2,865.0 1371.7,777.6 1490.3,888.7 1429.1,1044.7" fill="url(#facet-1)" opacity="0.14"/><polygon points="1276.8,736.0 1138.6,763.4 1045.8,657.2 1091.2,523.5 1229.4,496.0 1322.2,602.2" fill="url(#facet-1)" opacity="0.24"/><polygon points="922.0,884.4 932.8,681.1 1111.4,562.1 1323.4,617.1 1409.1,804.6 1303.9,983.4 1087.2,1019.0" fill="url(#facet-1)" opacity="0.27"/><polygon points="1795.8,1070.2 1668.3,1021.4 1696.8,923.6 1842.0,911.9 1903.2,1002.5" fill="url(#facet-1)" opacity="0.31"/><polygon points="1943.4,940.0 1797.3,1082.3 1632.9,982.5 1614.7,740.4 1760.9,598.1 1925.3,697.8" fill="url(#facet-1)" opacity="0.34"/><polygon points="1025.9,1096.6 958.7,895.5 1077.7,718.7 1293.3,699.4 1443.2,852.1 1414.5,1061.9 1228.8,1170.7" fill="url(#facet-1)" opacity="0.25"/><polygon points="1528.2,480.6 1438.2,397.3 1486.0,281.8 1605.5,293.8 1631.6,416.6" fill="url(#facet-1)" opacity="0.09"/><polygon points="1906.3,654.5 1726.0,560.7 1731.5,381.2 1917.3,295.5 2097.6,389.3 2092.1,568.8" fill="url(#facet-1)" opacity="0.13"/><polygon points="1056.1,1033.9 1047.4,816.7 1199.2,673.9 1397.2,713.0 1492.4,904.5 1413.0,1104.3 1218.9,1161.9" fill="url(#facet-1)" opacity="0.25"/><polygon points="1509.5,474.9 1663.1,592.1 1604.4,781.7 1414.6,781.7 1355.9,592.1" fill="url(#hero)" stroke="#e3bd68" stroke-width="9"/><circle cx="1509.5" cy="644.5" r="65.36500000000001" fill="#d89df0" opacity=".84"/><polygon points="1509.5,474.9 1663.1,592.1 1604.4,781.7 1414.6,781.7 1355.9,592.1" fill="none" stroke="#d89df0" stroke-opacity=".46" stroke-width="5"/></g><rect x="1045" y="260" width="929" height="769" rx="38" fill="none" stroke="#4ee991" stroke-opacity=".48" stroke-width="6"/></g>
  <g><defs><clipPath id="panel-clip-2"><rect x="74" y="1071" width="929" height="769" rx="38"/></clipPath></defs><rect x="74" y="1071" width="929" height="769" rx="38" fill="#252a0f"/><g clip-path="url(#panel-clip-2)"><polygon points="384.7,1551.7 395.1,1341.2 597.4,1286.0 712.1,1462.5 580.7,1626.7" fill="url(#facet-2)" opacity="0.26"/><polygon points="782.6,1214.3 654.4,1248.9 550.0,1183.6 573.9,1083.9 702.1,1049.4 806.4,1114.6" fill="url(#facet-2)" opacity="0.12"/><polygon points="657.4,1977.3 453.4,2046.3 284.6,1883.0 278.0,1610.3 438.6,1433.6 645.5,1485.9 742.8,1727.9" fill="url(#facet-2)" opacity="0.15"/><polygon points="411.1,1431.3 197.8,1278.1 317.1,1071.1 604.1,1096.4 662.2,1319.0" fill="url(#facet-2)" opacity="0.27"/><polygon points="347.0,1470.7 245.2,1407.8 239.5,1270.1 335.7,1195.4 437.5,1258.3 443.2,1395.9" fill="url(#facet-2)" opacity="0.09"/><polygon points="677.8,1651.4 547.7,1641.0 473.6,1516.8 511.3,1372.4 632.5,1316.6 745.8,1391.3 766.0,1540.3" fill="url(#facet-2)" opacity="0.22"/><polygon points="665.8,1957.2 377.0,1845.9 367.1,1444.6 649.6,1308.0 834.2,1624.7" fill="url(#facet-2)" opacity="0.30"/><polygon points="620.7,1788.7 376.4,1725.1 305.0,1462.9 477.8,1264.4 722.0,1328.1 793.5,1590.3" fill="url(#facet-2)" opacity="0.28"/><polygon points="321.2,1315.9 197.0,1275.5 155.4,1164.7 227.7,1066.8 359.5,1055.7 451.5,1139.7 434.4,1255.5" fill="url(#facet-2)" opacity="0.25"/><polygon points="538.5,1285.9 678.4,1370.7 678.4,1540.3 538.5,1625.1 398.6,1540.3 398.6,1370.7" fill="url(#hero)" stroke="#e3bd68" stroke-width="9"/><circle cx="538.5" cy="1455.5" r="65.36500000000001" fill="#d89df0" opacity=".84"/><polygon points="538.5,1285.9 678.4,1370.7 678.4,1540.3 538.5,1625.1 398.6,1540.3 398.6,1370.7" fill="none" stroke="#d89df0" stroke-opacity=".46" stroke-width="5"/></g><rect x="74" y="1071" width="929" height="769" rx="38" fill="none" stroke="#4ee991" stroke-opacity=".48" stroke-width="6"/></g>
  <g><defs><clipPath id="panel-clip-3"><rect x="1045" y="1071" width="929" height="769" rx="38"/></clipPath></defs><rect x="1045" y="1071" width="929" height="769" rx="38" fill="#252a0f"/><g clip-path="url(#panel-clip-3)"><polygon points="1511.2,1770.2 1291.0,1651.7 1342.5,1417.6 1594.6,1391.4 1698.8,1609.4" fill="url(#facet-0)" opacity="0.15"/><polygon points="1735.9,1597.3 1784.4,1499.5 1903.0,1488.4 1973.1,1575.0 1924.6,1672.7 1806.0,1683.9" fill="url(#facet-0)" opacity="0.09"/><polygon points="1740.4,2000.2 1651.3,1821.2 1698.7,1615.0 1846.9,1536.7 1984.3,1645.4 2007.5,1859.2 1898.9,2017.0" fill="url(#facet-0)" opacity="0.31"/><polygon points="1665.0,1992.2 1507.1,1710.2 1664.6,1427.7 1919.9,1535.3 1920.1,1884.1" fill="url(#facet-0)" opacity="0.30"/><polygon points="1890.9,1519.2 1777.0,1588.1 1675.5,1490.4 1687.9,1323.7 1801.8,1254.8 1903.3,1352.5" fill="url(#facet-0)" opacity="0.22"/><polygon points="1643.8,1522.6 1534.7,1715.3 1332.0,1739.9 1188.5,1577.9 1212.2,1351.3 1385.2,1230.7 1577.3,1306.9" fill="url(#facet-0)" opacity="0.22"/><polygon points="1159.2,1801.1 1262.3,1561.7 1518.4,1587.2 1573.5,1842.4 1351.6,1974.6" fill="url(#facet-0)" opacity="0.23"/><polygon points="1772.3,1779.6 1694.9,1652.0 1781.0,1528.7 1944.4,1533.1 2021.7,1660.8 1935.7,1784.1" fill="url(#facet-0)" opacity="0.16"/><polygon points="1532.5,1420.3 1494.3,1230.2 1601.8,1077.9 1774.1,1078.1 1881.4,1230.6 1842.9,1420.6 1687.6,1505.1" fill="url(#facet-0)" opacity="0.29"/><polygon points="1509.5,1285.9 1635.8,1349.8 1666.9,1493.2 1579.6,1608.3 1439.4,1608.3 1352.1,1493.2 1383.2,1349.8" fill="url(#hero)" stroke="#e3bd68" stroke-width="9"/><circle cx="1509.5" cy="1455.5" r="65.36500000000001" fill="#d89df0" opacity=".84"/><polygon points="1509.5,1285.9 1635.8,1349.8 1666.9,1493.2 1579.6,1608.3 1439.4,1608.3 1352.1,1493.2 1383.2,1349.8" fill="none" stroke="#d89df0" stroke-opacity=".46" stroke-width="5"/></g><rect x="1045" y="1071" width="929" height="769" rx="38" fill="none" stroke="#4ee991" stroke-opacity=".48" stroke-width="6"/></g>
  <text x="74" y="1991" fill="#d89df0" opacity=".74" font-family="Arial,sans-serif" font-size="22">ORIGINAL STYLIZED CRYSTAL ART • 8192 × 8192 SOURCE • RELEASE 4</text>
</svg>
