<?xml version="1.0" encoding="UTF-8"?>
<svg xmlns="http://www.w3.org/2000/svg" width="8192" height="8192" viewBox="0 0 2048 2048" role="img" aria-labelledby="title desc">
  <title id="title">campaign navigation — button state master</title>
  <desc id="desc">Original PaoPao Fusion stylized crystal production master PF-asset-071; authored for the Phaser client.</desc>
  <metadata>{&quot;schemaVersion&quot;:1,&quot;id&quot;:&quot;PF-asset-071&quot;,&quot;release&quot;:1,&quot;allocation&quot;:&quot;ui-icons-illustrations&quot;,&quot;subject&quot;:&quot;campaign navigation&quot;,&quot;facet&quot;:&quot;button state master&quot;,&quot;original&quot;:true,&quot;artboard&quot;:[8192,8192],&quot;runtimePolicy&quot;:&quot;derive optimized Phaser variants without counting copies as masters&quot;}</metadata>
  <defs>
    <linearGradient id="back" x1="0" y1="0" x2="1" y2="1"><stop stop-color="#050713"/><stop offset=".55" stop-color="#0f2a1e"/><stop offset="1" stop-color="#217b8c"/></linearGradient>
    <radialGradient id="hero" cx="32%" cy="24%"><stop stop-color="#f0a89d"/><stop offset=".38" stop-color="#4e63e9"/><stop offset="1" stop-color="#217b8c"/></radialGradient>
    <linearGradient id="facet-0"><stop stop-color="#4e63e9"/><stop offset="1" stop-color="#217b8c"/></linearGradient>
    <linearGradient id="facet-1"><stop stop-color="#e3bd68"/><stop offset="1" stop-color="#0f2a1e"/></linearGradient>
    <linearGradient id="facet-2"><stop stop-color="#f0a89d"/><stop offset="1" stop-color="#4e63e9"/></linearGradient>
  </defs>
  <rect width="2048" height="2048" fill="url(#back)"/>
  <path d="M0 148 L440 0 M1608 0 L2048 148 M0 1900 L440 2048 M1608 2048 L2048 1900" stroke="#e3bd68" stroke-opacity=".42" stroke-width="8" fill="none"/>
  <text x="74" y="94" fill="#e3bd68" font-family="Georgia,serif" font-size="34" font-weight="700" letter-spacing="5">PAOPAO FUSION • MASTER PF-asset-071</text>
  <text x="74" y="164" fill="#f0a89d" font-family="Arial,sans-serif" font-size="52" font-weight="800">campaign navigation</text>
  <text x="74" y="216" fill="#4e63e9" font-family="Arial,sans-serif" font-size="28" letter-spacing="2">BUTTON STATE MASTER</text>
  <g><defs><clipPath id="panel-clip-0"><rect x="74" y="260" width="929" height="769" rx="38"/></clipPath></defs><rect x="74" y="260" width="929" height="769" rx="38" fill="#0f2a1e"/><g clip-path="url(#panel-clip-0)"><polygon points="394.5,1042.8 184.2,1168.4 -8.5,1020.0 82.8,802.7 331.9,816.8" fill="url(#facet-0)" opacity="0.26"/><polygon points="473.1,805.7 299.4,844.4 183.6,690.1 241.4,497.1 415.0,458.4 530.9,612.7" fill="url(#facet-0)" opacity="0.22"/><polygon points="30.6,710.2 62.3,649.3 147.3,629.3 221.6,665.4 229.4,730.3 164.7,775.3 76.2,766.3" fill="url(#facet-0)" opacity="0.25"/><polygon points="375.1,426.4 153.6,530.4 -31.3,383.7 75.8,189.0 327.0,215.3" fill="url(#facet-0)" opacity="0.27"/><polygon points="473.5,921.7 349.2,1128.6 140.5,1100.7 55.9,865.7 180.1,658.8 388.9,686.8" fill="url(#facet-0)" opacity="0.20"/><polygon points="271.1,885.4 251.6,796.9 306.6,726.0 394.6,726.1 449.4,797.2 429.7,885.7 350.3,924.9" fill="url(#facet-0)" opacity="0.12"/><polygon points="222.2,724.9 142.7,627.3 232.1,535.5 366.7,576.4 360.6,693.5" fill="url(#facet-0)" opacity="0.17"/><polygon points="926.4,745.9 687.1,756.1 558.6,552.9 669.5,339.5 908.9,329.3 1037.3,532.5" fill="url(#facet-0)" opacity="0.22"/><polygon points="715.0,990.5 582.4,970.0 514.1,841.8 561.5,702.3 689.0,656.6 800.5,739.2 812.0,887.8" fill="url(#facet-0)" opacity="0.20"/><polygon points="538.5,474.9 664.8,538.8 695.9,682.2 608.6,797.3 468.4,797.3 381.1,682.2 412.2,538.8" fill="url(#hero)" stroke="#e3bd68" stroke-width="9"/><circle cx="538.5" cy="644.5" r="65.36500000000001" fill="#f0a89d" opacity=".84"/><polygon points="538.5,474.9 664.8,538.8 695.9,682.2 608.6,797.3 468.4,797.3 381.1,682.2 412.2,538.8" fill="none" stroke="#f0a89d" stroke-opacity=".46" stroke-width="5"/></g><rect x="74" y="260" width="929" height="769" rx="38" fill="none" stroke="#4e63e9" stroke-opacity=".48" stroke-width="6"/></g>
  <g><defs><clipPath id="panel-clip-1"><rect x="1045" y="260" width="929" height="769" rx="38"/></clipPath></defs><rect x="1045" y="260" width="929" height="769" rx="38" fill="#0f2a1e"/><g clip-path="url(#panel-clip-1)"><polygon points="1466.7,1076.6 1480.8,812.2 1687.1,747.2 1800.5,971.5 1664.3,1175.0" fill="url(#facet-1)" opacity="0.22"/><polygon points="1200.5,666.9 1245.3,436.8 1473.6,359.4 1657.2,511.9 1612.4,741.9 1384.1,819.4" fill="url(#facet-1)" opacity="0.15"/><polygon points="1792.7,757.2 1728.1,700.2 1745.6,625.6 1831.8,589.6 1922.0,619.3 1948.1,692.4 1890.5,753.8" fill="url(#facet-1)" opacity="0.11"/><polygon points="1531.8,984.2 1580.3,680.5 1832.8,642.6 1940.5,923.0 1754.5,1134.1" fill="url(#facet-1)" opacity="0.30"/><polygon points="1436.1,1145.8 1299.5,964.2 1403.6,765.6 1644.2,748.5 1780.8,930.0 1676.7,1128.7" fill="url(#facet-1)" opacity="0.23"/><polygon points="1444.3,464.2 1338.3,374.9 1352.5,247.2 1476.2,177.2 1616.2,217.7 1667.2,338.1 1590.7,447.8" fill="url(#facet-1)" opacity="0.16"/><polygon points="1383.0,922.7 1444.1,578.2 1697.0,553.2 1792.2,882.2 1598.1,1110.5" fill="url(#facet-1)" opacity="0.11"/><polygon points="1190.0,590.4 1185.9,354.6 1362.4,232.7 1543.1,346.4 1547.3,582.1 1370.7,704.1" fill="url(#facet-1)" opacity="0.18"/><polygon points="1834.4,833.8 1622.2,840.3 1485.0,673.3 1526.0,458.4 1714.5,357.5 1908.4,446.6 1961.8,658.6" fill="url(#facet-1)" opacity="0.33"/><polygon points="1509.5,474.9 1623.7,524.6 1671.0,644.5 1623.7,764.4 1509.5,814.1 1395.3,764.4 1348.0,644.5 1395.3,524.6" fill="url(#hero)" stroke="#e3bd68" stroke-width="9"/><circle cx="1509.5" cy="644.5" r="65.36500000000001" fill="#f0a89d" opacity=".84"/><polygon points="1509.5,474.9 1623.7,524.6 1671.0,644.5 1623.7,764.4 1509.5,814.1 1395.3,764.4 1348.0,644.5 1395.3,524.6" fill="none" stroke="#f0a89d" stroke-opacity=".46" stroke-width="5"/></g><rect x="1045" y="260" width="929" height="769" rx="38" fill="none" stroke="#4e63e9" stroke-opacity=".48" stroke-width="6"/></g>
  <g><defs><clipPath id="panel-clip-2"><rect x="74" y="1071" width="929" height="769" rx="38"/></clipPath></defs><rect x="74" y="1071" width="929" height="769" rx="38" fill="#0f2a1e"/><g clip-path="url(#panel-clip-2)"><polygon points="844.2,1745.8 705.4,1679.1 726.8,1528.0 878.8,1501.3 951.4,1636.0" fill="url(#facet-2)" opacity="0.22"/><polygon points="382.7,1315.1 243.0,1363.1 138.7,1241.1 174.1,1071.1 313.8,1023.1 418.0,1145.1" fill="url(#facet-2)" opacity="0.30"/><polygon points="44.4,1364.7 -51.1,1204.2 17.5,1031.1 198.5,975.7 355.6,1079.7 370.5,1264.8 232.0,1391.7" fill="url(#facet-2)" opacity="0.17"/><polygon points="387.0,1290.1 243.2,1513.7 27.2,1413.4 37.5,1127.7 259.8,1051.6" fill="url(#facet-2)" opacity="0.25"/><polygon points="195.6,1263.0 43.7,1231.0 -0.0,1102.3 108.2,1005.6 260.1,1037.5 303.8,1166.2" fill="url(#facet-2)" opacity="0.28"/><polygon points="718.7,1160.0 755.1,1085.7 863.2,1058.8 961.4,1099.5 976.0,1177.1 895.8,1233.3 781.3,1225.6" fill="url(#facet-2)" opacity="0.13"/><polygon points="214.2,1787.3 298.2,1552.1 507.3,1577.0 552.6,1827.5 371.4,1957.4" fill="url(#facet-2)" opacity="0.14"/><polygon points="726.4,1627.6 734.3,1448.3 930.5,1364.1 1118.9,1459.3 1111.1,1638.6 914.8,1722.8" fill="url(#facet-2)" opacity="0.26"/><polygon points="995.0,1482.1 825.8,1534.1 679.2,1435.8 665.5,1261.4 795.1,1142.0 970.4,1167.6 1059.4,1319.0" fill="url(#facet-2)" opacity="0.16"/><polygon points="538.5,1285.9 642.3,1325.6 697.5,1426.1 678.4,1540.3 593.7,1614.8 483.3,1614.8 398.6,1540.3 379.5,1426.1 434.7,1325.6" fill="url(#hero)" stroke="#e3bd68" stroke-width="9"/><circle cx="538.5" cy="1455.5" r="65.36500000000001" fill="#f0a89d" opacity=".84"/><polygon points="538.5,1285.9 642.3,1325.6 697.5,1426.1 678.4,1540.3 593.7,1614.8 483.3,1614.8 398.6,1540.3 379.5,1426.1 434.7,1325.6" fill="none" stroke="#f0a89d" stroke-opacity=".46" stroke-width="5"/></g><rect x="74" y="1071" width="929" height="769" rx="38" fill="none" stroke="#4e63e9" stroke-opacity=".48" stroke-width="6"/></g>
  <g><defs><clipPath id="panel-clip-3"><rect x="1045" y="1071" width="929" height="769" rx="38"/></clipPath></defs><rect x="1045" y="1071" width="929" height="769" rx="38" fill="#0f2a1e"/><g clip-path="url(#panel-clip-3)"><polygon points="1733.7,1440.2 1729.7,1298.6 1854.1,1250.9 1934.9,1362.9 1860.4,1479.9" fill="url(#facet-0)" opacity="0.27"/><polygon points="1502.0,1566.4 1493.0,1408.7 1594.0,1319.8 1704.0,1388.6 1712.9,1546.3 1611.9,1635.1" fill="url(#facet-0)" opacity="0.34"/><polygon points="1509.4,1880.8 1326.2,1864.8 1230.9,1759.9 1295.2,1645.0 1470.7,1606.7 1625.3,1673.9 1642.5,1795.8" fill="url(#facet-0)" opacity="0.30"/><polygon points="1560.0,1664.3 1441.9,1746.5 1345.0,1626.6 1403.2,1470.3 1536.1,1493.6" fill="url(#facet-0)" opacity="0.24"/><polygon points="1638.4,1556.2 1426.7,1711.5 1221.8,1540.3 1228.6,1213.8 1440.3,1058.5 1645.2,1229.7" fill="url(#facet-0)" opacity="0.31"/><polygon points="1013.8,1483.9 990.0,1300.8 1134.8,1170.0 1339.1,1190.0 1449.1,1345.7 1382.0,1519.9 1188.2,1581.4" fill="url(#facet-0)" opacity="0.19"/><polygon points="2127.8,1204.2 1967.1,1426.3 1748.3,1304.1 1773.7,1006.4 2008.3,944.7" fill="url(#facet-0)" opacity="0.19"/><polygon points="1486.1,1452.8 1284.9,1547.4 1090.6,1442.3 1097.5,1242.6 1298.7,1148.0 1493.0,1253.1" fill="url(#facet-0)" opacity="0.24"/><polygon points="946.7,1527.1 949.4,1339.2 1118.1,1223.8 1325.8,1267.9 1416.1,1438.3 1321.0,1606.6 1112.1,1646.1" fill="url(#facet-0)" opacity="0.17"/><polygon points="1509.5,1285.9 1663.1,1403.1 1604.4,1592.7 1414.6,1592.7 1355.9,1403.1" fill="url(#hero)" stroke="#e3bd68" stroke-width="9"/><circle cx="1509.5" cy="1455.5" r="65.36500000000001" fill="#f0a89d" opacity=".84"/><polygon points="1509.5,1285.9 1663.1,1403.1 1604.4,1592.7 1414.6,1592.7 1355.9,1403.1" fill="none" stroke="#f0a89d" stroke-opacity=".46" stroke-width="5"/></g><rect x="1045" y="1071" width="929" height="769" rx="38" fill="none" stroke="#4e63e9" stroke-opacity=".48" stroke-width="6"/></g>
  <text x="74" y="1991" fill="#f0a89d" opacity=".74" font-family="Arial,sans-serif" font-size="22">ORIGINAL STYLIZED CRYSTAL ART • 8192 × 8192 SOURCE • RELEASE 1</text>
</svg>
