<?xml version="1.0" encoding="UTF-8"?>
<svg xmlns="http://www.w3.org/2000/svg" width="8192" height="8192" viewBox="0 0 2048 2048" role="img" aria-labelledby="title desc">
  <title id="title">game HUD — promotional key visual</title>
  <desc id="desc">Original PaoPao Fusion stylized crystal production master PF-asset-168; authored for the Phaser client.</desc>
  <metadata>{&quot;schemaVersion&quot;:1,&quot;id&quot;:&quot;PF-asset-168&quot;,&quot;release&quot;:2,&quot;allocation&quot;:&quot;ui-icons-illustrations&quot;,&quot;subject&quot;:&quot;game HUD&quot;,&quot;facet&quot;:&quot;promotional key visual&quot;,&quot;original&quot;:true,&quot;artboard&quot;:[8192,8192],&quot;runtimePolicy&quot;:&quot;derive optimized Phaser variants without counting copies as masters&quot;}</metadata>
  <defs>
    <linearGradient id="back" x1="0" y1="0" x2="1" y2="1"><stop stop-color="#050713"/><stop offset=".55" stop-color="#122a0f"/><stop offset="1" stop-color="#218c53"/></linearGradient>
    <radialGradient id="hero" cx="32%" cy="24%"><stop stop-color="#f09dcc"/><stop offset=".38" stop-color="#4ecfe9"/><stop offset="1" stop-color="#218c53"/></radialGradient>
    <linearGradient id="facet-0"><stop stop-color="#4ecfe9"/><stop offset="1" stop-color="#218c53"/></linearGradient>
    <linearGradient id="facet-1"><stop stop-color="#e3bd68"/><stop offset="1" stop-color="#122a0f"/></linearGradient>
    <linearGradient id="facet-2"><stop stop-color="#f09dcc"/><stop offset="1" stop-color="#4ecfe9"/></linearGradient>
  </defs>
  <rect width="2048" height="2048" fill="url(#back)"/>
  <path d="M0 148 L440 0 M1608 0 L2048 148 M0 1900 L440 2048 M1608 2048 L2048 1900" stroke="#e3bd68" stroke-opacity=".42" stroke-width="8" fill="none"/>
  <text x="74" y="94" fill="#e3bd68" font-family="Georgia,serif" font-size="34" font-weight="700" letter-spacing="5">PAOPAO FUSION • MASTER PF-asset-168</text>
  <text x="74" y="164" fill="#f09dcc" font-family="Arial,sans-serif" font-size="52" font-weight="800">game HUD</text>
  <text x="74" y="216" fill="#4ecfe9" font-family="Arial,sans-serif" font-size="28" letter-spacing="2">PROMOTIONAL KEY VISUAL</text>
  <g><defs><clipPath id="panel-clip-0"><rect x="74" y="260" width="929" height="769" rx="38"/></clipPath></defs><rect x="74" y="260" width="929" height="769" rx="38" fill="#122a0f"/><g clip-path="url(#panel-clip-0)"><polygon points="276.9,1099.0 76.1,1000.4 95.7,750.6 308.5,694.8 420.5,910.1" fill="url(#facet-0)" opacity="0.15"/><polygon points="802.6,617.6 638.0,545.3 618.5,367.1 763.8,261.2 928.4,333.6 947.9,511.7" fill="url(#facet-0)" opacity="0.23"/><polygon points="814.0,966.5 791.6,833.6 855.1,727.3 956.6,727.6 1019.7,834.3 996.9,967.1 905.3,1025.9" fill="url(#facet-0)" opacity="0.26"/><polygon points="320.3,1056.9 363.2,784.3 660.7,737.3 801.6,980.8 591.2,1178.3" fill="url(#facet-0)" opacity="0.15"/><polygon points="935.9,1035.7 783.6,980.2 771.3,853.2 911.4,781.7 1063.6,837.2 1075.9,964.2" fill="url(#facet-0)" opacity="0.31"/><polygon points="579.1,696.9 526.8,550.1 602.5,415.2 749.1,393.8 856.3,502.0 843.4,658.4 720.0,745.1" fill="url(#facet-0)" opacity="0.10"/><polygon points="203.8,1026.7 90.8,971.2 98.6,821.2 216.4,784.0 281.5,911.0" fill="url(#facet-0)" opacity="0.20"/><polygon points="315.1,617.3 423.3,413.0 651.5,406.1 771.5,603.5 663.2,807.9 435.0,814.8" fill="url(#facet-0)" opacity="0.24"/><polygon points="747.7,660.3 660.4,797.9 483.5,823.8 350.2,718.4 360.8,561.2 507.5,470.4 679.7,514.6" fill="url(#facet-0)" opacity="0.10"/><polygon points="538.5,474.9 642.3,514.6 697.5,615.1 678.4,729.3 593.7,803.8 483.3,803.8 398.6,729.3 379.5,615.1 434.7,514.6" fill="url(#hero)" stroke="#e3bd68" stroke-width="9"/><circle cx="538.5" cy="644.5" r="65.36500000000001" fill="#f09dcc" opacity=".84"/><polygon points="538.5,474.9 642.3,514.6 697.5,615.1 678.4,729.3 593.7,803.8 483.3,803.8 398.6,729.3 379.5,615.1 434.7,514.6" fill="none" stroke="#f09dcc" stroke-opacity=".46" stroke-width="5"/></g><rect x="74" y="260" width="929" height="769" rx="38" fill="none" stroke="#4ecfe9" stroke-opacity=".48" stroke-width="6"/></g>
  <g><defs><clipPath id="panel-clip-1"><rect x="1045" y="260" width="929" height="769" rx="38"/></clipPath></defs><rect x="1045" y="260" width="929" height="769" rx="38" fill="#122a0f"/><g clip-path="url(#panel-clip-1)"><polygon points="1876.0,792.2 1662.7,947.9 1420.6,825.7 1484.1,594.4 1765.6,573.7" fill="url(#facet-1)" opacity="0.24"/><polygon points="1622.0,616.6 1519.8,591.1 1494.6,503.1 1571.7,440.6 1673.9,466.1 1699.0,554.1" fill="url(#facet-1)" opacity="0.30"/><polygon points="1786.1,777.5 1552.8,771.4 1412.7,606.4 1471.4,406.8 1684.7,322.9 1891.9,417.9 1937.0,620.2" fill="url(#facet-1)" opacity="0.18"/><polygon points="1776.1,965.2 1610.1,933.2 1586.3,748.3 1737.6,666.1 1854.9,800.2" fill="url(#facet-1)" opacity="0.17"/><polygon points="1315.9,771.9 1234.2,622.0 1362.9,493.0 1573.2,513.7 1654.9,663.6 1526.2,792.6" fill="url(#facet-1)" opacity="0.31"/><polygon points="1612.5,799.0 1552.0,712.9 1565.4,596.9 1642.5,538.4 1725.4,581.4 1751.5,693.5 1701.3,790.4" fill="url(#facet-1)" opacity="0.18"/><polygon points="1197.8,757.0 1096.2,631.4 1151.5,459.6 1287.3,479.0 1315.9,662.8" fill="url(#facet-1)" opacity="0.22"/><polygon points="1604.9,758.4 1394.4,744.2 1304.4,589.6 1424.9,449.4 1635.4,463.6 1725.4,618.2" fill="url(#facet-1)" opacity="0.34"/><polygon points="1468.2,932.1 1415.8,861.8 1442.5,780.0 1528.2,748.3 1608.4,790.6 1622.7,875.0 1560.3,938.0" fill="url(#facet-1)" opacity="0.24"/><polygon points="1509.5,474.9 1663.1,592.1 1604.4,781.7 1414.6,781.7 1355.9,592.1" fill="url(#hero)" stroke="#e3bd68" stroke-width="9"/><circle cx="1509.5" cy="644.5" r="65.36500000000001" fill="#f09dcc" opacity=".84"/><polygon points="1509.5,474.9 1663.1,592.1 1604.4,781.7 1414.6,781.7 1355.9,592.1" fill="none" stroke="#f09dcc" stroke-opacity=".46" stroke-width="5"/></g><rect x="1045" y="260" width="929" height="769" rx="38" fill="none" stroke="#4ecfe9" stroke-opacity=".48" stroke-width="6"/></g>
  <g><defs><clipPath id="panel-clip-2"><rect x="74" y="1071" width="929" height="769" rx="38"/></clipPath></defs><rect x="74" y="1071" width="929" height="769" rx="38" fill="#122a0f"/><g clip-path="url(#panel-clip-2)"><polygon points="232.2,1440.8 96.5,1477.9 27.3,1322.8 120.1,1189.7 246.7,1262.7" fill="url(#facet-2)" opacity="0.26"/><polygon points="996.5,1446.2 781.9,1497.7 627.0,1349.1 686.8,1149.0 901.4,1097.5 1056.2,1246.1" fill="url(#facet-2)" opacity="0.09"/><polygon points="293.2,1543.2 102.9,1513.2 7.8,1346.1 79.5,1167.8 263.9,1112.4 422.2,1221.8 435.3,1413.5" fill="url(#facet-2)" opacity="0.11"/><polygon points="143.3,1882.5 8.4,1743.4 73.8,1541.9 249.1,1556.4 292.1,1767.0" fill="url(#facet-2)" opacity="0.27"/><polygon points="448.1,1685.4 469.1,1418.5 669.9,1307.1 849.8,1462.6 828.8,1729.6 628.0,1841.0" fill="url(#facet-2)" opacity="0.14"/><polygon points="382.1,1908.5 185.4,1859.4 105.6,1690.9 202.9,1530.1 404.0,1497.9 557.5,1618.7 547.8,1801.4" fill="url(#facet-2)" opacity="0.09"/><polygon points="906.1,1873.7 751.3,1817.8 763.4,1670.0 925.6,1634.5 1013.8,1760.4" fill="url(#facet-2)" opacity="0.14"/><polygon points="424.9,1375.7 246.9,1257.9 261.7,1047.2 454.4,954.4 632.4,1072.3 617.6,1283.0" fill="url(#facet-2)" opacity="0.19"/><polygon points="1032.0,1764.4 895.0,1793.3 776.9,1737.1 766.7,1638.1 872.1,1570.8 1013.7,1586.0 1084.8,1672.1" fill="url(#facet-2)" opacity="0.34"/><polygon points="538.5,1285.9 678.4,1370.7 678.4,1540.3 538.5,1625.1 398.6,1540.3 398.6,1370.7" fill="url(#hero)" stroke="#e3bd68" stroke-width="9"/><circle cx="538.5" cy="1455.5" r="65.36500000000001" fill="#f09dcc" opacity=".84"/><polygon points="538.5,1285.9 678.4,1370.7 678.4,1540.3 538.5,1625.1 398.6,1540.3 398.6,1370.7" fill="none" stroke="#f09dcc" stroke-opacity=".46" stroke-width="5"/></g><rect x="74" y="1071" width="929" height="769" rx="38" fill="none" stroke="#4ecfe9" stroke-opacity=".48" stroke-width="6"/></g>
  <g><defs><clipPath id="panel-clip-3"><rect x="1045" y="1071" width="929" height="769" rx="38"/></clipPath></defs><rect x="1045" y="1071" width="929" height="769" rx="38" fill="#122a0f"/><g clip-path="url(#panel-clip-3)"><polygon points="1591.1,1502.7 1406.8,1355.5 1455.7,1078.1 1670.2,1053.9 1753.8,1316.3" fill="url(#facet-0)" opacity="0.22"/><polygon points="1764.8,1263.2 1720.8,1154.1 1793.7,1061.6 1910.5,1078.3 1954.4,1187.4 1881.6,1279.8" fill="url(#facet-0)" opacity="0.21"/><polygon points="1362.5,1866.7 1173.1,1990.5 961.3,1914.8 886.6,1696.4 1005.2,1499.9 1227.9,1473.2 1386.9,1636.5" fill="url(#facet-0)" opacity="0.25"/><polygon points="1045.0,1570.8 1064.5,1294.0 1305.5,1229.3 1434.9,1466.1 1273.9,1677.1" fill="url(#facet-0)" opacity="0.14"/><polygon points="1180.1,1608.5 991.0,1589.7 920.2,1467.8 1038.4,1364.7 1227.5,1383.5 1298.3,1505.4" fill="url(#facet-0)" opacity="0.13"/><polygon points="1395.9,1616.8 1291.8,1682.6 1169.8,1650.4 1121.6,1544.6 1183.6,1444.7 1309.1,1426.0 1403.5,1502.6" fill="url(#facet-0)" opacity="0.26"/><polygon points="1851.7,1410.5 1588.5,1308.3 1624.5,1069.6 1910.0,1024.1 2050.4,1234.8" fill="url(#facet-0)" opacity="0.09"/><polygon points="1970.4,1710.5 1806.1,1761.4 1687.8,1613.1 1733.9,1413.9 1898.2,1363.0 2016.5,1511.3" fill="url(#facet-0)" opacity="0.27"/><polygon points="1576.0,1395.6 1430.9,1470.9 1287.4,1392.0 1253.5,1218.2 1354.7,1080.4 1514.9,1082.3 1613.4,1222.6" fill="url(#facet-0)" opacity="0.22"/><polygon points="1509.5,1285.9 1635.8,1349.8 1666.9,1493.2 1579.6,1608.3 1439.4,1608.3 1352.1,1493.2 1383.2,1349.8" fill="url(#hero)" stroke="#e3bd68" stroke-width="9"/><circle cx="1509.5" cy="1455.5" r="65.36500000000001" fill="#f09dcc" opacity=".84"/><polygon points="1509.5,1285.9 1635.8,1349.8 1666.9,1493.2 1579.6,1608.3 1439.4,1608.3 1352.1,1493.2 1383.2,1349.8" fill="none" stroke="#f09dcc" stroke-opacity=".46" stroke-width="5"/></g><rect x="1045" y="1071" width="929" height="769" rx="38" fill="none" stroke="#4ecfe9" stroke-opacity=".48" stroke-width="6"/></g>
  <text x="74" y="1991" fill="#f09dcc" opacity=".74" font-family="Arial,sans-serif" font-size="22">ORIGINAL STYLIZED CRYSTAL ART • 8192 × 8192 SOURCE • RELEASE 2</text>
</svg>
