<?xml version="1.0" encoding="UTF-8"?>
<svg xmlns="http://www.w3.org/2000/svg" width="8192" height="8192" viewBox="0 0 2048 2048" role="img" aria-labelledby="title desc">
  <title id="title">accessibility — panel frame master</title>
  <desc id="desc">Original PaoPao Fusion stylized crystal production master PF-asset-470; authored for the Phaser client.</desc>
  <metadata>{&quot;schemaVersion&quot;:1,&quot;id&quot;:&quot;PF-asset-470&quot;,&quot;release&quot;:5,&quot;allocation&quot;:&quot;ui-icons-illustrations&quot;,&quot;subject&quot;:&quot;accessibility&quot;,&quot;facet&quot;:&quot;panel frame master&quot;,&quot;original&quot;:true,&quot;artboard&quot;:[8192,8192],&quot;runtimePolicy&quot;:&quot;derive optimized Phaser variants without counting copies as masters&quot;}</metadata>
  <defs>
    <linearGradient id="back" x1="0" y1="0" x2="1" y2="1"><stop stop-color="#050713"/><stop offset=".55" stop-color="#112a0f"/><stop offset="1" stop-color="#218c57"/></linearGradient>
    <radialGradient id="hero" cx="32%" cy="24%"><stop stop-color="#f09dca"/><stop offset=".38" stop-color="#4ecae9"/><stop offset="1" stop-color="#218c57"/></radialGradient>
    <linearGradient id="facet-0"><stop stop-color="#4ecae9"/><stop offset="1" stop-color="#218c57"/></linearGradient>
    <linearGradient id="facet-1"><stop stop-color="#e3bd68"/><stop offset="1" stop-color="#112a0f"/></linearGradient>
    <linearGradient id="facet-2"><stop stop-color="#f09dca"/><stop offset="1" stop-color="#4ecae9"/></linearGradient>
  </defs>
  <rect width="2048" height="2048" fill="url(#back)"/>
  <path d="M0 148 L440 0 M1608 0 L2048 148 M0 1900 L440 2048 M1608 2048 L2048 1900" stroke="#e3bd68" stroke-opacity=".42" stroke-width="8" fill="none"/>
  <text x="74" y="94" fill="#e3bd68" font-family="Georgia,serif" font-size="34" font-weight="700" letter-spacing="5">PAOPAO FUSION • MASTER PF-asset-470</text>
  <text x="74" y="164" fill="#f09dca" font-family="Arial,sans-serif" font-size="52" font-weight="800">accessibility</text>
  <text x="74" y="216" fill="#4ecae9" font-family="Arial,sans-serif" font-size="28" letter-spacing="2">PANEL FRAME MASTER</text>
  <g><defs><clipPath id="panel-clip-0"><rect x="74" y="260" width="929" height="1580" rx="38"/></clipPath></defs><rect x="74" y="260" width="929" height="1580" rx="38" fill="#112a0f"/><g clip-path="url(#panel-clip-0)"><polygon points="775.3,572.8 613.9,350.2 748.0,104.9 992.4,175.9 1009.2,465.0" fill="url(#facet-0)" opacity="0.12"/><polygon points="1121.9,1048.5 938.8,1326.1 634.4,1285.6 513.3,967.5 696.5,689.9 1000.8,730.4" fill="url(#facet-0)" opacity="0.18"/><polygon points="320.0,459.3 269.4,301.5 335.6,153.3 468.7,126.2 568.4,240.6 559.8,410.4 449.2,507.8" fill="url(#facet-0)" opacity="0.27"/><polygon points="851.6,1640.4 668.6,1554.6 676.5,1308.0 864.5,1241.4 972.7,1446.8" fill="url(#facet-0)" opacity="0.12"/><polygon points="986.7,664.0 731.1,794.0 514.5,578.3 553.5,232.5 809.1,102.4 1025.7,318.2" fill="url(#facet-0)" opacity="0.24"/><polygon points="1036.4,1776.0 882.2,1802.4 769.6,1668.1 783.4,1474.3 913.2,1367.0 1061.3,1426.9 1116.1,1608.9" fill="url(#facet-0)" opacity="0.25"/><polygon points="872.3,1649.7 728.3,1758.8 589.6,1641.5 648.0,1459.9 822.7,1465.0" fill="url(#facet-0)" opacity="0.16"/><polygon points="957.1,1933.7 749.7,1971.7 618.1,1778.2 694.0,1546.6 901.5,1508.6 1033.0,1702.1" fill="url(#facet-0)" opacity="0.09"/><polygon points="438.3,1701.2 265.0,1510.4 297.8,1247.9 511.9,1111.4 746.2,1203.6 824.2,1455.2 687.1,1676.7" fill="url(#facet-0)" opacity="0.31"/><polygon points="538.5,845.2 663.9,893.1 730.6,1014.4 707.5,1152.4 605.2,1242.5 471.8,1242.5 369.5,1152.4 346.4,1014.4 413.1,893.1" fill="url(#hero)" stroke="#e3bd68" stroke-width="9"/><circle cx="538.5" cy="1050" r="78.965" fill="#f09dca" opacity=".84"/><polygon points="538.5,845.2 663.9,893.1 730.6,1014.4 707.5,1152.4 605.2,1242.5 471.8,1242.5 369.5,1152.4 346.4,1014.4 413.1,893.1" fill="none" stroke="#f09dca" stroke-opacity=".46" stroke-width="5"/></g><rect x="74" y="260" width="929" height="1580" rx="38" fill="none" stroke="#4ecae9" stroke-opacity=".48" stroke-width="6"/></g>
  <g><defs><clipPath id="panel-clip-1"><rect x="1045" y="260" width="929" height="1580" rx="38"/></clipPath></defs><rect x="1045" y="260" width="929" height="1580" rx="38" fill="#112a0f"/><g clip-path="url(#panel-clip-1)"><polygon points="1086.2,1182.0 979.8,1118.0 1037.0,1029.9 1178.8,1039.4 1209.2,1133.4" fill="url(#facet-1)" opacity="0.14"/><polygon points="1678.3,1342.4 1584.9,1062.3 1717.7,812.9 1943.8,843.7 2037.2,1123.8 1904.4,1373.1" fill="url(#facet-1)" opacity="0.12"/><polygon points="1854.3,1664.2 1677.5,1710.9 1529.2,1607.3 1521.2,1431.5 1659.4,1315.8 1839.8,1347.4 1926.6,1502.4" fill="url(#facet-1)" opacity="0.17"/><polygon points="1442.7,1838.1 1558.9,1567.2 1831.3,1604.0 1883.4,1897.6 1643.2,2042.3" fill="url(#facet-1)" opacity="0.14"/><polygon points="1169.0,1673.1 1061.4,1596.0 1079.9,1471.3 1206.1,1423.8 1313.8,1500.9 1295.2,1625.6" fill="url(#facet-1)" opacity="0.10"/><polygon points="1170.9,1673.8 1118.1,1586.9 1182.9,1503.9 1316.5,1487.5 1418.2,1549.9 1411.6,1644.2 1301.5,1699.4" fill="url(#facet-1)" opacity="0.14"/><polygon points="1943.8,1790.7 1754.5,1719.9 1754.0,1489.0 1942.9,1417.1 2060.2,1603.5" fill="url(#facet-1)" opacity="0.21"/><polygon points="2078.1,702.6 1793.2,809.1 1533.1,668.9 1557.9,422.4 1842.8,316.0 2102.9,456.1" fill="url(#facet-1)" opacity="0.34"/><polygon points="1329.1,796.1 1177.8,624.9 1205.6,388.6 1391.6,265.1 1595.7,347.4 1664.2,573.5 1545.6,773.2" fill="url(#facet-1)" opacity="0.31"/><polygon points="1509.5,845.2 1695.0,986.7 1624.2,1215.7 1394.8,1215.7 1324.0,986.7" fill="url(#hero)" stroke="#e3bd68" stroke-width="9"/><circle cx="1509.5" cy="1050" r="78.965" fill="#f09dca" opacity=".84"/><polygon points="1509.5,845.2 1695.0,986.7 1624.2,1215.7 1394.8,1215.7 1324.0,986.7" fill="none" stroke="#f09dca" stroke-opacity=".46" stroke-width="5"/></g><rect x="1045" y="260" width="929" height="1580" rx="38" fill="none" stroke="#4ecae9" stroke-opacity=".48" stroke-width="6"/></g>
  <text x="74" y="1991" fill="#f09dca" opacity=".74" font-family="Arial,sans-serif" font-size="22">ORIGINAL STYLIZED CRYSTAL ART • 8192 × 8192 SOURCE • RELEASE 5</text>
</svg>
