<?xml version="1.0" encoding="UTF-8"?>
<svg xmlns="http://www.w3.org/2000/svg" width="8192" height="8192" viewBox="0 0 2048 2048" role="img" aria-labelledby="title desc">
  <title id="title">Emerald realm — background silhouette kit</title>
  <desc id="desc">Original PaoPao Fusion stylized crystal production master PF-asset-035; authored for the Phaser client.</desc>
  <metadata>{&quot;schemaVersion&quot;:1,&quot;id&quot;:&quot;PF-asset-035&quot;,&quot;release&quot;:1,&quot;allocation&quot;:&quot;environment-models-props&quot;,&quot;subject&quot;:&quot;Emerald realm&quot;,&quot;facet&quot;:&quot;background silhouette kit&quot;,&quot;original&quot;:true,&quot;artboard&quot;:[8192,8192],&quot;runtimePolicy&quot;:&quot;derive optimized Phaser variants without counting copies as masters&quot;}</metadata>
  <defs>
    <linearGradient id="back" x1="0" y1="0" x2="1" y2="1"><stop stop-color="#050713"/><stop offset=".55" stop-color="#140f2a"/><stop offset="1" stop-color="#75218c"/></linearGradient>
    <radialGradient id="hero" cx="32%" cy="24%"><stop stop-color="#b2f09d"/><stop offset=".38" stop-color="#e94e9e"/><stop offset="1" stop-color="#75218c"/></radialGradient>
    <linearGradient id="facet-0"><stop stop-color="#e94e9e"/><stop offset="1" stop-color="#75218c"/></linearGradient>
    <linearGradient id="facet-1"><stop stop-color="#e3bd68"/><stop offset="1" stop-color="#140f2a"/></linearGradient>
    <linearGradient id="facet-2"><stop stop-color="#b2f09d"/><stop offset="1" stop-color="#e94e9e"/></linearGradient>
  </defs>
  <rect width="2048" height="2048" fill="url(#back)"/>
  <path d="M0 148 L440 0 M1608 0 L2048 148 M0 1900 L440 2048 M1608 2048 L2048 1900" stroke="#e3bd68" stroke-opacity=".42" stroke-width="8" fill="none"/>
  <text x="74" y="94" fill="#e3bd68" font-family="Georgia,serif" font-size="34" font-weight="700" letter-spacing="5">PAOPAO FUSION • MASTER PF-asset-035</text>
  <text x="74" y="164" fill="#b2f09d" font-family="Arial,sans-serif" font-size="52" font-weight="800">Emerald realm</text>
  <text x="74" y="216" fill="#e94e9e" font-family="Arial,sans-serif" font-size="28" letter-spacing="2">BACKGROUND SILHOUETTE KIT</text>
  <g><defs><clipPath id="panel-clip-0"><rect x="74" y="260" width="929" height="1580" rx="38"/></clipPath></defs><rect x="74" y="260" width="929" height="1580" rx="38" fill="#140f2a"/><g clip-path="url(#panel-clip-0)"><polygon points="242.1,878.5 210.3,665.9 494.1,579.4 701.3,738.5 545.6,923.4" fill="url(#facet-0)" opacity="0.27"/><polygon points="765.0,1587.6 538.0,1635.8 384.2,1456.4 457.3,1228.8 684.3,1180.5 838.1,1359.9" fill="url(#facet-0)" opacity="0.10"/><polygon points="322.6,1572.5 207.1,1521.9 185.7,1420.0 274.7,1343.4 407.0,1349.9 483.0,1434.5 445.4,1533.6" fill="url(#facet-0)" opacity="0.10"/><polygon points="100.9,1185.2 151.5,926.8 378.6,902.8 468.4,1146.4 296.8,1321.0" fill="url(#facet-0)" opacity="0.24"/><polygon points="927.3,1618.0 710.7,1571.0 633.6,1303.5 773.2,1082.8 989.8,1129.7 1066.8,1397.3" fill="url(#facet-0)" opacity="0.16"/><polygon points="765.4,697.1 522.8,732.9 345.5,550.7 367.1,287.6 571.3,141.8 804.3,223.0 890.7,470.2" fill="url(#facet-0)" opacity="0.31"/><polygon points="1056.7,1389.1 777.3,1620.8 523.9,1342.2 646.6,938.3 975.9,967.4" fill="url(#facet-0)" opacity="0.33"/><polygon points="-133.6,587.7 -26.2,266.7 237.0,229.7 392.6,513.8 285.1,834.8 22.0,871.7" fill="url(#facet-0)" opacity="0.18"/><polygon points="486.4,992.8 387.0,926.6 380.0,812.1 470.7,735.5 590.8,754.6 649.9,854.9 603.4,960.9" fill="url(#facet-0)" opacity="0.16"/><path d="M 124 1790 L 278.38 1050 L 408.44 1790 L 612.8199999999999 718.2 L 770.75 1790 L 953 1176.4 L 953 1790 Z" fill="url(#hero)" opacity=".86"/><ellipse cx="538.5" cy="1790" rx="297.28000000000003" ry="86.9" fill="#e94e9e" opacity=".3"/><polygon points="538.5,929.0 724.0,1012.6 653.2,1147.9 423.8,1147.9 353.0,1012.6" fill="none" stroke="#b2f09d" stroke-opacity=".46" stroke-width="5"/></g><rect x="74" y="260" width="929" height="1580" rx="38" fill="none" stroke="#e94e9e" stroke-opacity=".48" stroke-width="6"/></g>
  <g><defs><clipPath id="panel-clip-1"><rect x="1045" y="260" width="929" height="1580" rx="38"/></clipPath></defs><rect x="1045" y="260" width="929" height="1580" rx="38" fill="#140f2a"/><g clip-path="url(#panel-clip-1)"><polygon points="1953.1,1201.5 1611.2,1149.5 1546.3,738.7 1848.1,536.8 2099.5,822.8" fill="url(#facet-1)" opacity="0.33"/><polygon points="1986.1,1058.4 1842.7,1356.3 1567.8,1347.5 1436.3,1040.8 1579.8,742.9 1854.6,751.7" fill="url(#facet-1)" opacity="0.26"/><polygon points="1219.0,1619.1 1115.5,1696.5 1000.7,1647.4 961.0,1508.7 1026.3,1384.9 1147.5,1369.2 1233.2,1473.4" fill="url(#facet-1)" opacity="0.18"/><polygon points="1256.4,775.4 1043.1,662.0 1108.6,460.4 1362.3,449.2 1453.6,643.9" fill="url(#facet-1)" opacity="0.21"/><polygon points="1747.0,1559.2 1748.1,1439.7 1867.6,1380.8 1985.9,1441.4 1984.8,1560.9 1865.4,1619.8" fill="url(#facet-1)" opacity="0.23"/><polygon points="1535.7,1210.3 1465.1,1304.2 1338.3,1313.8 1250.7,1231.9 1268.3,1120.2 1377.8,1062.7 1496.8,1102.8" fill="url(#facet-1)" opacity="0.16"/><polygon points="1704.5,611.9 1797.8,306.5 2067.7,319.0 2141.2,632.1 1916.8,813.1" fill="url(#facet-1)" opacity="0.29"/><polygon points="2078.2,1081.0 1819.7,1209.9 1582.5,1042.7 1603.9,746.5 1862.4,617.5 2099.6,784.8" fill="url(#facet-1)" opacity="0.31"/><polygon points="1169.7,1640.2 1160.5,1497.5 1302.4,1403.2 1488.5,1428.2 1578.7,1553.6 1505.1,1685.2 1323.0,1723.7" fill="url(#facet-1)" opacity="0.13"/><path d="M 1093 1792 L 1249.38 1050 L 1379.44 1792 L 1583.82 718.2 L 1741.75 1792 L 1926 1176.4 L 1926 1792 Z" fill="url(#hero)" opacity=".86"/><ellipse cx="1509.5" cy="1792" rx="297.28000000000003" ry="86.9" fill="#e94e9e" opacity=".3"/><polygon points="1509.5,929.0 1678.5,989.5 1678.5,1110.5 1509.5,1171.0 1340.5,1110.5 1340.5,989.5" fill="none" stroke="#b2f09d" stroke-opacity=".46" stroke-width="5"/></g><rect x="1045" y="260" width="929" height="1580" rx="38" fill="none" stroke="#e94e9e" stroke-opacity=".48" stroke-width="6"/></g>
  <text x="74" y="1991" fill="#b2f09d" opacity=".74" font-family="Arial,sans-serif" font-size="22">ORIGINAL STYLIZED CRYSTAL ART • 8192 × 8192 SOURCE • RELEASE 1</text>
</svg>
