<?xml version="1.0" encoding="UTF-8"?>
<svg xmlns="http://www.w3.org/2000/svg" width="8192" height="8192" viewBox="0 0 2048 2048" role="img" aria-labelledby="title desc">
  <title id="title">arena sanctum — gameplay plane master</title>
  <desc id="desc">Original PaoPao Fusion stylized crystal production master PF-asset-332; authored for the Phaser client.</desc>
  <metadata>{&quot;schemaVersion&quot;:1,&quot;id&quot;:&quot;PF-asset-332&quot;,&quot;release&quot;:4,&quot;allocation&quot;:&quot;environment-models-props&quot;,&quot;subject&quot;:&quot;arena sanctum&quot;,&quot;facet&quot;:&quot;gameplay plane master&quot;,&quot;original&quot;:true,&quot;artboard&quot;:[8192,8192],&quot;runtimePolicy&quot;:&quot;derive optimized Phaser variants without counting copies as masters&quot;}</metadata>
  <defs>
    <linearGradient id="back" x1="0" y1="0" x2="1" y2="1"><stop stop-color="#050713"/><stop offset=".55" stop-color="#2a290f"/><stop offset="1" stop-color="#508c21"/></linearGradient>
    <radialGradient id="hero" cx="32%" cy="24%"><stop stop-color="#ca9df0"/><stop offset=".38" stop-color="#4ee977"/><stop offset="1" stop-color="#508c21"/></radialGradient>
    <linearGradient id="facet-0"><stop stop-color="#4ee977"/><stop offset="1" stop-color="#508c21"/></linearGradient>
    <linearGradient id="facet-1"><stop stop-color="#e3bd68"/><stop offset="1" stop-color="#2a290f"/></linearGradient>
    <linearGradient id="facet-2"><stop stop-color="#ca9df0"/><stop offset="1" stop-color="#4ee977"/></linearGradient>
  </defs>
  <rect width="2048" height="2048" fill="url(#back)"/>
  <path d="M0 148 L440 0 M1608 0 L2048 148 M0 1900 L440 2048 M1608 2048 L2048 1900" stroke="#e3bd68" stroke-opacity=".42" stroke-width="8" fill="none"/>
  <text x="74" y="94" fill="#e3bd68" font-family="Georgia,serif" font-size="34" font-weight="700" letter-spacing="5">PAOPAO FUSION • MASTER PF-asset-332</text>
  <text x="74" y="164" fill="#ca9df0" font-family="Arial,sans-serif" font-size="52" font-weight="800">arena sanctum</text>
  <text x="74" y="216" fill="#4ee977" font-family="Arial,sans-serif" font-size="28" letter-spacing="2">GAMEPLAY PLANE MASTER</text>
  <g><defs><clipPath id="panel-clip-0"><rect x="74" y="260" width="929" height="1580" rx="38"/></clipPath></defs><rect x="74" y="260" width="929" height="1580" rx="38" fill="#2a290f"/><g clip-path="url(#panel-clip-0)"><polygon points="354.0,1089.9 140.6,724.6 337.4,343.4 672.4,473.0 682.7,934.4" fill="url(#facet-0)" opacity="0.20"/><polygon points="541.4,1841.2 317.3,1898.5 157.4,1726.0 221.6,1496.4 445.7,1439.1 605.5,1611.5" fill="url(#facet-0)" opacity="0.28"/><polygon points="309.2,1124.5 177.7,1222.9 27.1,1168.9 -29.2,1003.2 51.3,850.5 207.8,825.8 322.6,947.8" fill="url(#facet-0)" opacity="0.12"/><polygon points="308.0,992.2 126.6,810.6 199.2,522.8 425.4,526.6 492.7,816.6" fill="url(#facet-0)" opacity="0.16"/><polygon points="1106.1,1779.7 810.4,1815.7 629.6,1591.1 744.5,1330.5 1040.3,1294.4 1221.0,1519.0" fill="url(#facet-0)" opacity="0.24"/><polygon points="362.2,1988.2 147.9,1892.0 87.2,1659.2 225.9,1465.2 459.6,1456.0 612.2,1638.6 568.9,1875.4" fill="url(#facet-0)" opacity="0.20"/><polygon points="970.5,1677.2 822.8,1700.6 758.0,1543.8 865.8,1423.5 997.1,1506.0" fill="url(#facet-0)" opacity="0.20"/><polygon points="554.0,1654.1 418.5,1848.0 202.2,1812.3 121.4,1582.8 256.9,1388.9 473.2,1424.6" fill="url(#facet-0)" opacity="0.15"/><polygon points="843.5,949.1 745.8,851.3 768.1,720.2 893.6,654.5 1027.7,703.6 1069.6,830.6 987.6,939.8" fill="url(#facet-0)" opacity="0.15"/><path d="M 112 1802 L 278.38 1050 L 408.44 1802 L 612.8199999999999 718.2 L 770.75 1802 L 965 1176.4 L 965 1802 Z" fill="url(#hero)" opacity=".86"/><ellipse cx="538.5" cy="1802" rx="297.28000000000003" ry="86.9" fill="#4ee977" opacity=".3"/><polygon points="538.5,929.0 663.9,957.3 730.6,1029.0 707.5,1110.5 605.2,1163.7 471.8,1163.7 369.5,1110.5 346.4,1029.0 413.1,957.3" fill="none" stroke="#ca9df0" stroke-opacity=".46" stroke-width="5"/></g><rect x="74" y="260" width="929" height="1580" rx="38" fill="none" stroke="#4ee977" stroke-opacity=".48" stroke-width="6"/></g>
  <g><defs><clipPath id="panel-clip-1"><rect x="1045" y="260" width="929" height="1580" rx="38"/></clipPath></defs><rect x="1045" y="260" width="929" height="1580" rx="38" fill="#2a290f"/><g clip-path="url(#panel-clip-1)"><polygon points="1473.5,1370.1 1269.2,1112.0 1386.9,768.5 1664.1,814.3 1717.7,1186.1" fill="url(#facet-1)" opacity="0.22"/><polygon points="1325.2,1180.7 1182.9,931.5 1268.9,637.6 1497.2,592.9 1639.5,842.1 1553.5,1136.0" fill="url(#facet-1)" opacity="0.14"/><polygon points="1294.3,736.8 1127.1,701.8 1043.5,507.3 1106.5,299.7 1268.6,235.3 1407.8,362.7 1419.2,585.8" fill="url(#facet-1)" opacity="0.14"/><polygon points="1584.8,1357.8 1477.7,1440.3 1334.3,1393.4 1352.7,1281.9 1507.5,1260.0" fill="url(#facet-1)" opacity="0.30"/><polygon points="881.2,1033.3 861.1,640.9 1122.6,422.9 1404.3,597.3 1424.4,989.7 1162.9,1207.7" fill="url(#facet-1)" opacity="0.26"/><polygon points="1263.1,478.1 1172.5,344.4 1265.1,211.4 1471.2,179.2 1635.7,272.0 1634.6,420.1 1468.8,511.8" fill="url(#facet-1)" opacity="0.31"/><polygon points="1377.3,1300.3 1234.2,1477.4 1012.4,1403.1 1018.4,1180.0 1243.9,1116.5" fill="url(#facet-1)" opacity="0.28"/><polygon points="1745.6,582.7 1557.3,753.9 1283.0,705.3 1197.0,485.5 1385.3,314.3 1659.6,362.9" fill="url(#facet-1)" opacity="0.22"/><polygon points="1781.2,1498.5 1730.4,1325.3 1805.6,1166.9 1950.3,1142.7 2055.5,1270.9 2041.9,1454.9 1919.8,1556.2" fill="url(#facet-1)" opacity="0.21"/><path d="M 1092 1793 L 1249.38 1050 L 1379.44 1793 L 1583.82 718.2 L 1741.75 1793 L 1927 1176.4 L 1927 1793 Z" fill="url(#hero)" opacity=".86"/><ellipse cx="1509.5" cy="1793" rx="297.28000000000003" ry="86.9" fill="#4ee977" opacity=".3"/><polygon points="1509.5,929.0 1695.0,1012.6 1624.2,1147.9 1394.8,1147.9 1324.0,1012.6" fill="none" stroke="#ca9df0" stroke-opacity=".46" stroke-width="5"/></g><rect x="1045" y="260" width="929" height="1580" rx="38" fill="none" stroke="#4ee977" stroke-opacity=".48" stroke-width="6"/></g>
  <text x="74" y="1991" fill="#ca9df0" opacity=".74" font-family="Arial,sans-serif" font-size="22">ORIGINAL STYLIZED CRYSTAL ART • 8192 × 8192 SOURCE • RELEASE 4</text>
</svg>
