<?xml version="1.0" encoding="UTF-8"?>
<svg xmlns="http://www.w3.org/2000/svg" width="8192" height="8192" viewBox="0 0 2048 2048" role="img" aria-labelledby="title desc">
  <title id="title">season vault — midground prop kit</title>
  <desc id="desc">Original PaoPao Fusion stylized crystal production master PF-asset-424; authored for the Phaser client.</desc>
  <metadata>{&quot;schemaVersion&quot;:1,&quot;id&quot;:&quot;PF-asset-424&quot;,&quot;release&quot;:5,&quot;allocation&quot;:&quot;environment-models-props&quot;,&quot;subject&quot;:&quot;season vault&quot;,&quot;facet&quot;:&quot;midground prop kit&quot;,&quot;original&quot;:true,&quot;artboard&quot;:[8192,8192],&quot;runtimePolicy&quot;:&quot;derive optimized Phaser variants without counting copies as masters&quot;}</metadata>
  <defs>
    <linearGradient id="back" x1="0" y1="0" x2="1" y2="1"><stop stop-color="#050713"/><stop offset=".55" stop-color="#0f2a2a"/><stop offset="1" stop-color="#214e8c"/></linearGradient>
    <radialGradient id="hero" cx="32%" cy="24%"><stop stop-color="#f0cb9d"/><stop offset=".38" stop-color="#7a4ee9"/><stop offset="1" stop-color="#214e8c"/></radialGradient>
    <linearGradient id="facet-0"><stop stop-color="#7a4ee9"/><stop offset="1" stop-color="#214e8c"/></linearGradient>
    <linearGradient id="facet-1"><stop stop-color="#e3bd68"/><stop offset="1" stop-color="#0f2a2a"/></linearGradient>
    <linearGradient id="facet-2"><stop stop-color="#f0cb9d"/><stop offset="1" stop-color="#7a4ee9"/></linearGradient>
  </defs>
  <rect width="2048" height="2048" fill="url(#back)"/>
  <path d="M0 148 L440 0 M1608 0 L2048 148 M0 1900 L440 2048 M1608 2048 L2048 1900" stroke="#e3bd68" stroke-opacity=".42" stroke-width="8" fill="none"/>
  <text x="74" y="94" fill="#e3bd68" font-family="Georgia,serif" font-size="34" font-weight="700" letter-spacing="5">PAOPAO FUSION • MASTER PF-asset-424</text>
  <text x="74" y="164" fill="#f0cb9d" font-family="Arial,sans-serif" font-size="52" font-weight="800">season vault</text>
  <text x="74" y="216" fill="#7a4ee9" font-family="Arial,sans-serif" font-size="28" letter-spacing="2">MIDGROUND PROP KIT</text>
  <g><defs><clipPath id="panel-clip-0"><rect x="74" y="260" width="929" height="1580" rx="38"/></clipPath></defs><rect x="74" y="260" width="929" height="1580" rx="38" fill="#0f2a2a"/><g clip-path="url(#panel-clip-0)"><polygon points="517.5,1196.8 289.4,1013.9 384.7,729.7 671.7,737.0 753.9,1025.6" fill="url(#facet-0)" opacity="0.11"/><polygon points="331.7,510.8 233.4,443.3 258.7,342.8 382.4,309.8 480.7,377.2 455.4,477.7" fill="url(#facet-0)" opacity="0.11"/><polygon points="901.8,1770.9 817.1,1828.1 702.7,1815.7 644.6,1743.0 686.8,1664.8 797.3,1639.9 893.0,1687.1" fill="url(#facet-0)" opacity="0.16"/><polygon points="242.9,1365.5 282.7,933.0 614.3,848.1 779.5,1228.1 549.9,1547.8" fill="url(#facet-0)" opacity="0.30"/><polygon points="346.5,1777.7 247.0,1625.8 307.3,1447.0 467.1,1420.0 566.6,1571.8 506.3,1750.6" fill="url(#facet-0)" opacity="0.32"/><polygon points="1153.3,891.6 936.9,1016.0 662.0,976.0 535.6,801.7 652.9,624.4 925.5,577.5 1148.2,696.4" fill="url(#facet-0)" opacity="0.32"/><polygon points="900.5,1343.7 730.9,1587.5 506.8,1444.9 538.0,1113.0 781.3,1050.4" fill="url(#facet-0)" opacity="0.17"/><polygon points="700.1,1642.8 447.7,1850.3 155.4,1717.5 115.6,1377.1 368.0,1169.6 660.2,1302.4" fill="url(#facet-0)" opacity="0.10"/><polygon points="695.3,1350.3 531.1,1515.0 332.0,1447.0 247.8,1197.5 342.0,954.4 543.6,900.8 700.8,1077.0" fill="url(#facet-0)" opacity="0.31"/><path d="M 123 1791 L 278.38 1050 L 408.44 1791 L 612.8199999999999 718.2 L 770.75 1791 L 954 1176.4 L 954 1791 Z" fill="url(#hero)" opacity=".86"/><ellipse cx="538.5" cy="1791" rx="297.28000000000003" ry="86.9" fill="#7a4ee9" opacity=".3"/><polygon points="538.5,929.0 724.0,1012.6 653.2,1147.9 423.8,1147.9 353.0,1012.6" fill="none" stroke="#f0cb9d" stroke-opacity=".46" stroke-width="5"/></g><rect x="74" y="260" width="929" height="1580" rx="38" fill="none" stroke="#7a4ee9" stroke-opacity=".48" stroke-width="6"/></g>
  <g><defs><clipPath id="panel-clip-1"><rect x="1045" y="260" width="929" height="1580" rx="38"/></clipPath></defs><rect x="1045" y="260" width="929" height="1580" rx="38" fill="#0f2a2a"/><g clip-path="url(#panel-clip-1)"><polygon points="1946.5,1464.4 1777.4,1514.4 1672.2,1385.4 1776.3,1255.8 1945.9,1304.6" fill="url(#facet-1)" opacity="0.31"/><polygon points="1687.8,1426.0 1540.9,1271.6 1606.5,1072.2 1819.2,1027.2 1966.1,1181.5 1900.4,1380.9" fill="url(#facet-1)" opacity="0.16"/><polygon points="1356.5,829.3 1273.3,958.3 1135.0,962.8 1045.7,839.3 1072.8,680.9 1195.7,606.8 1322.0,672.8" fill="url(#facet-1)" opacity="0.22"/><polygon points="1561.0,538.9 1379.5,546.5 1316.2,378.0 1458.5,266.4 1609.8,365.8" fill="url(#facet-1)" opacity="0.19"/><polygon points="1389.2,540.6 1235.1,644.1 1075.3,551.3 1069.6,354.9 1223.8,251.4 1383.5,344.2" fill="url(#facet-1)" opacity="0.10"/><polygon points="1597.1,601.6 1390.1,438.6 1393.0,180.6 1603.6,22.0 1863.4,82.1 1976.6,315.8 1858.1,546.9" fill="url(#facet-1)" opacity="0.14"/><polygon points="1766.6,896.8 1675.7,581.1 1880.8,372.3 2098.5,558.9 2027.9,883.1" fill="url(#facet-1)" opacity="0.29"/><polygon points="1341.0,1378.1 1191.0,1443.1 1070.5,1314.7 1100.1,1121.4 1250.1,1056.4 1370.6,1184.7" fill="url(#facet-1)" opacity="0.17"/><polygon points="1334.7,1776.6 1405.4,1570.0 1657.1,1484.2 1900.2,1583.8 1951.7,1793.8 1772.8,1956.1 1498.2,1948.4" fill="url(#facet-1)" opacity="0.20"/><path d="M 1094 1791 L 1249.38 1050 L 1379.44 1791 L 1583.82 718.2 L 1741.75 1791 L 1925 1176.4 L 1925 1791 Z" fill="url(#hero)" opacity=".86"/><ellipse cx="1509.5" cy="1791" rx="297.28000000000003" ry="86.9" fill="#7a4ee9" opacity=".3"/><polygon points="1509.5,929.0 1678.5,989.5 1678.5,1110.5 1509.5,1171.0 1340.5,1110.5 1340.5,989.5" fill="none" stroke="#f0cb9d" stroke-opacity=".46" stroke-width="5"/></g><rect x="1045" y="260" width="929" height="1580" rx="38" fill="none" stroke="#7a4ee9" stroke-opacity=".48" stroke-width="6"/></g>
  <text x="74" y="1991" fill="#f0cb9d" opacity=".74" font-family="Arial,sans-serif" font-size="22">ORIGINAL STYLIZED CRYSTAL ART • 8192 × 8192 SOURCE • RELEASE 5</text>
</svg>
